<?xml version="1.0" encoding="utf-8"?>
<!-- Generator: Adobe Illustrator 19.1.0, SVG Export Plug-In . SVG Version: 6.00 Build 0)  -->
<svg version="1.1" id="Layer_1" xmlns="http://www.w3.org/2000/svg" xmlns:xlink="http://www.w3.org/1999/xlink" x="0px" y="0px"
	 viewBox="0 0 59.2 52.3" style="enable-background:new 0 0 59.2 52.3;" xml:space="preserve">
<style type="text/css">
	.st0{fill:#27393D;}
</style>
<g>
	<path class="st0" d="M58.7,46.5L33,1.9c-1.5-2.6-5.2-2.6-6.7,0L0.5,46.5c-1.5,2.6,0.4,5.8,3.4,5.8h51.4
		C58.3,52.3,60.2,49.1,58.7,46.5z M29.6,15.7c1.6,0,3,1.4,2.9,3l-0.5,16.9c0,1.3-1.1,2.4-2.5,2.4s-2.4-1.1-2.5-2.4l-0.5-16.9
		C26.7,17,28,15.7,29.6,15.7z M29.6,46.3c-1.7,0-3.1-1.4-3.1-3.1c0-1.7,1.4-3.1,3.1-3.1s3.1,1.4,3.1,3.1S31.3,46.3,29.6,46.3z"/>
</g>
</svg>
