<?xml version="1.0" encoding="utf-8"?>
<!-- Generator: Adobe Illustrator 19.1.0, SVG Export Plug-In . SVG Version: 6.00 Build 0)  -->
<svg version="1.1" id="Layer_1" xmlns="http://www.w3.org/2000/svg" xmlns:xlink="http://www.w3.org/1999/xlink" x="0px" y="0px"
	 viewBox="-197 321.1 199.8 199.8" style="enable-background:new -197 321.1 199.8 199.8;" xml:space="preserve">
<style type="text/css">
	.st0{fill:#588F27;}
	.st1{enable-background:new    ;}
	.st2{fill:#FFFFFF;}
</style>
<circle class="st0" cx="-97.1" cy="421" r="99.9"/>
<g class="st1">
	<path class="st2" d="M-126.7,476.3c-0.1,0.3-0.2,0.4-0.5,0.4h-1.2c-0.2,0-0.3-0.1-0.2-0.4l5-15.1c0.1-0.3,0.2-0.4,0.5-0.4h1.3
		c0.3,0,0.4,0.1,0.5,0.4l5,15.2c0,0.2,0,0.3-0.2,0.3h-1.5c-0.3,0-0.3-0.1-0.4-0.3l-1.2-3.9h-5.9L-126.7,476.3z M-121.4,466.7
		l-1.2-3.9h-0.1l-1.1,3.8l-1.2,4.1h4.8L-121.4,466.7z"/>
	<path class="st2" d="M-109.7,476.9c-1.5,0-3.4-0.2-4.4-0.6c-0.5-0.2-0.6-0.6-0.6-1v-15.1c0-0.3,0.1-0.4,0.4-0.4h1
		c0.3,0,0.4,0.1,0.4,0.4v5.2l0,0c1.4-0.6,2.5-0.7,3.4-0.7c3.7,0,4.7,2.4,4.7,6C-104.8,474.7-105.8,476.9-109.7,476.9z M-109.3,466.4
		c-1,0-2.3,0.2-3.5,0.5v8c0.9,0.1,2.1,0.2,3.1,0.2c1.9,0,3.1-0.5,3.1-4.2C-106.7,467.6-107.3,466.4-109.3,466.4z"/>
	<path class="st2" d="M-97.7,476.9c-4.6,0-4.8-3.4-4.8-6.2c0-2.3,0.5-5.9,4.8-5.9c4.4,0,5,3,5,5.9C-92.7,473.4-93,476.9-97.7,476.9z
		 M-97.7,466.4c-2.5,0-3,1.5-3,4.4c0,2.9,0.5,4.4,3,4.4c2.6,0,3.1-1.4,3.1-4.4C-94.6,467.9-95.1,466.4-97.7,466.4z"/>
	<path class="st2" d="M-81.1,476.7h-1c-0.3,0-0.4-0.1-0.4-0.4v-0.8l0,0c-0.8,0.5-2.5,1.5-4.2,1.5c-3.1,0-3.5-1.9-3.5-4.4v-7.1
		c0-0.3,0.1-0.4,0.4-0.4h1c0.3,0,0.4,0.1,0.4,0.4v7.1c0,2.2,0.5,2.8,2,2.8c1.2,0,3.3-1,4-1.4v-8.5c0-0.3,0.1-0.4,0.4-0.4h1
		c0.3,0,0.4,0.1,0.4,0.4v10.9C-80.7,476.6-80.8,476.7-81.1,476.7z"/>
	<path class="st2" d="M-71.5,475.9c0,0.2,0,0.4-0.2,0.5c-0.6,0.3-2,0.5-2.7,0.5c-2.1,0-2.6-1-2.6-2.5v-7.8h-1.3
		c-0.3,0-0.4-0.1-0.4-0.4v-0.7c0-0.3,0.1-0.4,0.4-0.4h1.3v-2.6c0-0.3,0.2-0.4,0.4-0.5l1-0.3c0.3-0.1,0.4,0,0.4,0.4v3h2.7
		c0.3,0,0.4,0.1,0.4,0.4v0.7c0,0.3-0.1,0.4-0.4,0.4h-2.7v7.3c0,1.1,0.3,1.4,1.7,1.4c0.2,0,1.1-0.1,1.4-0.1c0.4,0,0.5,0,0.5,0.3
		L-71.5,475.9z"/>
</g>
<g class="st1">
	<path class="st2" d="M-126.5,497.1c0,0.2,0,0.4-0.2,0.5c-0.6,0.3-2,0.5-2.7,0.5c-2.1,0-2.6-1-2.6-2.5v-7.8h-1.3
		c-0.3,0-0.4-0.1-0.4-0.4v-0.7c0-0.3,0.1-0.4,0.4-0.4h1.3v-2.6c0-0.3,0.2-0.4,0.4-0.5l1-0.3c0.3-0.1,0.4,0,0.4,0.4v3h2.7
		c0.3,0,0.4,0.1,0.4,0.4v0.7c0,0.3-0.1,0.4-0.4,0.4h-2.7v7.3c0,1.1,0.3,1.4,1.7,1.4c0.2,0,1.1-0.1,1.4-0.1c0.4,0,0.5,0,0.5,0.3
		L-126.5,497.1z"/>
	<path class="st2" d="M-116.2,497.9h-1c-0.3,0-0.4-0.1-0.4-0.4l0-7.3c0-2-0.5-2.5-1.9-2.5c-1.2,0-3.3,1-4,1.4v8.5
		c0,0.3-0.1,0.4-0.4,0.4h-1c-0.3,0-0.4-0.1-0.4-0.4v-16.1c0-0.3,0.1-0.4,0.4-0.4h1c0.3,0,0.4,0.1,0.4,0.4v6.1l0,0
		c0.8-0.5,2.6-1.5,4.3-1.5c3.1,0,3.5,1.9,3.5,4.4v7.1C-115.7,497.8-115.9,497.9-116.2,497.9z"/>
	<path class="st2" d="M-104.6,492.6h-6.8c0,2.9,0.9,3.8,3.1,3.8c1,0,2.5-0.2,3.3-0.3c0.3,0,0.5,0,0.6,0.3l0.1,0.5
		c0,0.2,0,0.4-0.3,0.5c-0.9,0.4-2.7,0.6-3.8,0.6c-4.4,0-4.9-3-4.9-6c0-2.3,0.5-6.1,4.9-6.1c4.1,0,4.7,2.7,4.8,5.3
		C-103.5,492-103.7,492.6-104.6,492.6z M-108.4,487.6c-2.1,0-2.8,1.4-2.9,3.5h5.9C-105.5,489.4-105.8,487.6-108.4,487.6z"/>
	<path class="st2" d="M-87.3,496.6c-1.2,0.7-2.6,1.5-4.5,1.5c-2.3,0-3.2-1.2-3.2-3.3c0-2.7,1.3-4,4.5-4h3.3v-0.8
		c0-1.8-0.7-2.3-2.8-2.3c-0.9,0-2.4,0.1-3.4,0.2c-0.3,0-0.4,0-0.5-0.2l-0.1-0.6c0-0.2,0-0.4,0.4-0.5c1-0.3,2.8-0.5,4-0.5
		c3.9,0,4.3,1.7,4.3,4.3v5.3c0,1,0.1,1,0.9,1c0.3,0,0.4,0.1,0.4,0.3v0.6c0,0.2-0.1,0.4-0.5,0.4c-0.3,0-0.6,0.1-0.8,0.1
		C-86.6,498-87.1,497.6-87.3,496.6L-87.3,496.6z M-87.3,492.2h-3.5c-1.5,0-2.4,0.5-2.4,2.4c0,1.3,0.5,1.7,1.8,1.7
		c1.2,0,3-0.7,4.1-1.4V492.2z"/>
	<path class="st2" d="M-77.3,498.1c-0.9,0-2-0.2-3.3-0.7l0,0v4.2c0,0.3-0.1,0.5-0.4,0.5h-1c-0.3,0-0.4-0.1-0.4-0.5v-15
		c0-0.3,0.1-0.4,0.4-0.4h1c0.3,0,0.4,0.1,0.4,0.4v0.9l0.1,0c0.7-0.5,2.5-1.5,4.1-1.5c3,0,3.9,2.1,3.9,6
		C-72.6,495.9-73.6,498.1-77.3,498.1z M-76.7,487.6c-1.2,0-3.1,0.9-4,1.4v6.9c1.3,0.4,2.4,0.5,3.5,0.5c2,0,2.7-1.1,2.7-4.6
		C-74.5,488.2-75.2,487.6-76.7,487.6z"/>
	<path class="st2" d="M-65.3,498.1c-0.9,0-2-0.2-3.3-0.7l0,0v4.2c0,0.3-0.1,0.5-0.4,0.5h-1c-0.3,0-0.4-0.1-0.4-0.5v-15
		c0-0.3,0.1-0.4,0.4-0.4h1c0.3,0,0.4,0.1,0.4,0.4v0.9l0.1,0c0.7-0.5,2.5-1.5,4.1-1.5c3,0,3.9,2.1,3.9,6
		C-60.6,495.9-61.6,498.1-65.3,498.1z M-64.7,487.6c-1.2,0-3.1,0.9-4,1.4v6.9c1.3,0.4,2.4,0.5,3.5,0.5c2,0,2.7-1.1,2.7-4.6
		C-62.5,488.2-63.2,487.6-64.7,487.6z"/>
</g>
<g>
	<g>
		<path class="st2" d="M-80.9,395.1"/>
		<path class="st2" d="M-102,395.1"/>
		<path class="st2" d="M-76.9,356.8h-36.7c-3.4,0-6.2,2.7-6.2,6.2v67.2c0,3.4,2.8,6.2,6.2,6.2h36.7c3.4,0,6.2-2.7,6.2-6.2V363
			C-70.7,359.6-73.5,356.8-76.9,356.8L-76.9,356.8z M-95.3,432.9c-2.2,0-3.9-1.8-3.9-3.9c0-2.2,1.8-3.9,3.9-3.9
			c2.2,0,3.9,1.8,3.9,3.9C-91.3,431.2-93.1,432.9-95.3,432.9L-95.3,432.9z M-77.7,421.1c0,0.7-0.5,1.4-1.2,1.4h-32.7
			c-0.7,0-1.4-0.6-1.4-1.4v-56.4c0-0.7,0.6-1.3,1.4-1.3H-79c0.7,0,1.2,0.6,1.2,1.3v56.4H-77.7z"/>
	</g>
	<g>
		<g>
			<g>
				<path class="st2" d="M-95.3,385.4c-0.9,0-1.7,0.8-1.7,1.7s0.8,1.7,1.7,1.7c0.9,0,1.7-0.8,1.7-1.7
					C-93.6,386.2-94.4,385.4-95.3,385.4L-95.3,385.4z M-95.3,390.6c-0.9,0-1.7,0.8-1.7,1.7v5.2c0,0.9,0.8,1.7,1.7,1.7
					c0.9,0,1.7-0.8,1.7-1.7v-5.2C-93.6,391.3-94.4,390.6-95.3,390.6L-95.3,390.6z M-95.3,378.5c-7.6,0-13.7,6.2-13.7,13.7
					c0,7.6,6.2,13.7,13.7,13.7c7.6,0,13.7-6.2,13.7-13.7C-81.6,384.7-87.7,378.5-95.3,378.5L-95.3,378.5z M-95.3,403.4
					c-6.2,0-11.2-5-11.2-11.2c0-6.2,5-11.2,11.2-11.2s11.2,5,11.2,11.2C-84.2,398.4-89.2,403.4-95.3,403.4L-95.3,403.4z"/>
			</g>
		</g>
	</g>
</g>
</svg>
