<?xml version="1.0" encoding="utf-8"?>
<!-- Generator: Adobe Illustrator 19.1.0, SVG Export Plug-In . SVG Version: 6.00 Build 0)  -->
<svg version="1.1" id="Layer_1" xmlns="http://www.w3.org/2000/svg" xmlns:xlink="http://www.w3.org/1999/xlink" x="0px" y="0px"
	 viewBox="-197 321.1 199.8 199.8" style="enable-background:new -197 321.1 199.8 199.8;" xml:space="preserve">
<style type="text/css">
	.st0{fill:#F7E967;}
	.st1{fill:none;}
	.st2{enable-background:new    ;}
	.st3{fill:#1A69A3;}
	.st4{fill:#FFFFFF;}
</style>
<circle class="st0" cx="-97.1" cy="421" r="99.9"/>
<g>
	<rect x="-182.6" y="462.5" class="st1" width="171" height="42.3"/>
	<g class="st2">
		<path class="st3" d="M-154.8,479.6c-1.3,0-3.5-0.2-4.6-0.7c-0.3-0.1-0.4-0.3-0.3-0.5l0.2-0.7c0-0.2,0.2-0.3,0.4-0.2
			c1.3,0.2,3.3,0.3,4.3,0.3c2.4,0,3.6-0.9,3.6-2.6c0-2.2-0.7-2.7-3.3-3.2c-2.9-0.5-5.1-1.1-5.1-4.2c0-2.9,1.9-4.5,5.1-4.5
			c0.9,0,3,0.1,4.3,0.6c0.3,0.1,0.4,0.3,0.3,0.5l-0.1,0.6c0,0.2-0.1,0.3-0.5,0.3c-1.1-0.1-2.6-0.3-4-0.3c-2.5,0-3.3,1.1-3.3,2.7
			c0,1.9,0.9,2.1,3.4,2.6c2.8,0.5,5,1.1,5,4.6C-149.3,478.4-151.8,479.6-154.8,479.6z"/>
		<path class="st3" d="M-138.5,474.1h-6.8c0,2.9,0.9,3.8,3.1,3.8c1,0,2.5-0.2,3.3-0.3c0.3,0,0.5,0,0.6,0.3l0.1,0.5
			c0,0.2,0,0.4-0.3,0.5c-0.9,0.4-2.7,0.6-3.8,0.6c-4.4,0-4.9-3-4.9-6c0-2.3,0.5-6.1,4.9-6.1c4.1,0,4.7,2.7,4.8,5.3
			C-137.4,473.5-137.6,474.1-138.5,474.1z M-142.3,469.1c-2.1,0-2.8,1.4-2.9,3.5h5.9C-139.4,470.9-139.7,469.1-142.3,469.1z"/>
		<path class="st3" d="M-126.1,479.4h-1c-0.3,0-0.4-0.1-0.4-0.4l0-7.1c0-2.2-0.5-2.8-1.9-2.8c-1.2,0-3.3,1-4,1.4v8.5
			c0,0.3-0.1,0.4-0.4,0.4h-1c-0.3,0-0.4-0.1-0.4-0.4v-10.9c0-0.3,0.1-0.4,0.4-0.4h1c0.3,0,0.4,0.1,0.4,0.4v0.9l0.1,0
			c0.8-0.5,2.5-1.5,4.2-1.5c3.1,0,3.5,1.9,3.5,4.4v7.1C-125.7,479.3-125.8,479.4-126.1,479.4z"/>
		<path class="st3" d="M-119.4,479.6c-1.2,0-2.8-0.1-3.7-0.6c-0.2-0.1-0.3-0.3-0.3-0.5l0.1-0.5c0-0.3,0.2-0.3,0.5-0.3
			c1,0.1,2.6,0.3,3.4,0.3c1.8,0,2.5-0.5,2.5-1.8c0-1.4-0.5-1.7-2.4-2c-2.2-0.3-4.2-0.8-4.2-3.3c0-2.2,1.6-3.4,4.2-3.4
			c0.9,0,2.6,0.1,3.6,0.5c0.2,0.1,0.3,0.3,0.2,0.5l-0.1,0.6c0,0.3-0.3,0.3-0.6,0.3c-1-0.1-2.1-0.2-3.1-0.2c-1.8,0-2.3,0.5-2.3,1.8
			c0,1.2,0.6,1.3,2.5,1.7c2.1,0.3,4.1,0.8,4.1,3.5C-114.9,478.7-117.1,479.6-119.4,479.6z"/>
		<path class="st3" d="M-108,479.6c-4.6,0-4.8-3.4-4.8-6.2c0-2.3,0.5-5.9,4.8-5.9c4.4,0,5,3,5,5.9C-103,476.1-103.2,479.6-108,479.6
			z M-108,469.1c-2.5,0-3,1.5-3,4.4c0,2.9,0.5,4.4,3,4.4c2.6,0,3.1-1.4,3.1-4.4C-104.8,470.5-105.3,469.1-108,469.1z"/>
		<path class="st3" d="M-94.3,469.3c-1.3,0.3-3.2,0.8-3.8,1.2v8.5c0,0.3-0.1,0.4-0.4,0.4h-1c-0.3,0-0.4-0.1-0.4-0.4v-10.9
			c0-0.3,0.1-0.4,0.4-0.4h1c0.3,0,0.4,0.1,0.4,0.4v1l0,0c0.6-0.5,2.4-1.3,3.6-1.6c0.3-0.1,0.4,0,0.4,0.3l0.1,1
			C-93.9,469.1-94,469.3-94.3,469.3z"/>
		<path class="st3" d="M-89,479.6c-1.2,0-2.8-0.1-3.7-0.6c-0.2-0.1-0.3-0.3-0.3-0.5l0.1-0.5c0-0.3,0.2-0.3,0.5-0.3
			c1,0.1,2.6,0.3,3.4,0.3c1.8,0,2.5-0.5,2.5-1.8c0-1.4-0.5-1.7-2.4-2c-2.2-0.3-4.2-0.8-4.2-3.3c0-2.2,1.6-3.4,4.2-3.4
			c0.9,0,2.6,0.1,3.6,0.5c0.2,0.1,0.3,0.3,0.2,0.5L-85,469c0,0.3-0.3,0.3-0.6,0.3c-1-0.1-2.1-0.2-3.1-0.2c-1.8,0-2.3,0.5-2.3,1.8
			c0,1.2,0.6,1.3,2.5,1.7c2.1,0.3,4.1,0.8,4.1,3.5C-84.5,478.7-86.7,479.6-89,479.6z"/>
		<path class="st3" d="M-59.4,479.4h-1c-0.3,0-0.4-0.1-0.4-0.4v-7.2c0-2-0.4-2.6-1.9-2.6c-1.1,0-2.9,0.9-3.8,1.4c0,0.2,0,0.7,0,1.3
			v7.2c0,0.3-0.1,0.4-0.4,0.4h-1.1c-0.3,0-0.4-0.1-0.4-0.4l0-7.4c0-1.6-0.4-2.5-1.8-2.5c-1.1,0-2.7,0.8-3.8,1.4v8.5
			c0,0.3-0.1,0.4-0.4,0.4h-1c-0.3,0-0.4-0.1-0.4-0.4v-10.9c0-0.3,0.1-0.4,0.4-0.4h1c0.3,0,0.4,0.1,0.4,0.4v0.8c0,0,0,0,0,0
			c1-0.6,2.4-1.5,4-1.5c1.8,0,2.7,0.6,3.1,1.7c1.2-0.9,2.7-1.7,4.3-1.7c3,0,3.5,1.8,3.5,4.3v7.2C-59,479.3-59.1,479.4-59.4,479.4z"
			/>
		<path class="st3" d="M-48.8,478.1c-1.2,0.7-2.6,1.5-4.5,1.5c-2.3,0-3.2-1.2-3.2-3.3c0-2.7,1.3-4,4.5-4h3.3v-0.8
			c0-1.8-0.7-2.3-2.8-2.3c-0.9,0-2.4,0.1-3.4,0.2c-0.3,0-0.4,0-0.5-0.2l-0.1-0.6c0-0.2,0-0.4,0.4-0.5c1-0.3,2.8-0.5,4-0.5
			c3.9,0,4.3,1.7,4.3,4.3v5.3c0,1,0.1,1,0.9,1c0.3,0,0.4,0.1,0.4,0.3v0.6c0,0.2-0.1,0.4-0.5,0.4c-0.3,0-0.6,0.1-0.8,0.1
			C-48.1,479.5-48.6,479.1-48.8,478.1L-48.8,478.1z M-48.8,473.7h-3.5c-1.5,0-2.4,0.5-2.4,2.4c0,1.3,0.5,1.7,1.8,1.7
			c1.2,0,3-0.7,4.1-1.4V473.7z"/>
		<path class="st3" d="M-38.8,479.6c-0.9,0-2-0.2-3.3-0.7l0,0v4.2c0,0.3-0.1,0.5-0.4,0.5h-1c-0.3,0-0.4-0.1-0.4-0.5v-15
			c0-0.3,0.1-0.4,0.4-0.4h1c0.3,0,0.4,0.1,0.4,0.4v0.9l0.1,0c0.7-0.5,2.5-1.5,4.1-1.5c3,0,3.9,2.1,3.9,6
			C-34.1,477.4-35.1,479.6-38.8,479.6z M-38.2,469.1c-1.2,0-3.1,0.9-4,1.4v6.9c1.3,0.4,2.4,0.5,3.5,0.5c2,0,2.7-1.1,2.7-4.6
			C-36,469.7-36.7,469.1-38.2,469.1z"/>
	</g>
</g>
<g>
	<path class="st4" d="M-105.2,391.4h-31.5c-1.3,0-2.4,0.8-2.7,2l-6,20.9l42.3,4.6l3.3-15.9C-101.9,399.4-103.8,395.4-105.2,391.4
		L-105.2,391.4z"/>
	<path class="st4" d="M-65.7,423l12.7,1.4l-3.8-13.1c-0.5,0.8-1,1.5-1.5,2.2C-60.9,417.1-63.4,420.3-65.7,423L-65.7,423z"/>
	<g>
		<path class="st4" d="M-93.3,413.3l-1.4,6.5l6.9,0.8c-1.7-2.1-3.6-4.5-5.4-7.1C-93.2,413.4-93.2,413.4-93.3,413.3L-93.3,413.3z"/>
		<path class="st4" d="M-153.6,442.5c-0.2,0.9-0.1,1.8,0.5,2.5c0.5,0.7,1.4,1.1,2.3,1.1h42.1l3.9-18.8l-43-4.7L-153.6,442.5z"/>
		<path class="st4" d="M-50.4,433.3l-45.9-5l-3.8,17.8h49.6c1.6,0,2.8-1.3,2.8-2.8c0-0.3-0.1-0.7-0.2-1L-50.4,433.3z"/>
		<path class="st4" d="M-76.9,426.6c0.3,0.3,0.7,0.5,1.2,0.5c0.4,0,0.9-0.2,1.2-0.5c2.6-2.7,7.7-8.4,12.8-15.6
			c6.4-9.1,14.1-22.4,14.1-34.2c0-15.5-12.6-28.1-28.1-28.1s-28.1,12.6-28.1,28.1c0,11.9,7.7,25.2,14.1,34.2
			C-84.6,418.2-79.5,423.9-76.9,426.6L-76.9,426.6z M-75.7,359.3c9.5,0,17.2,7.7,17.2,17.2s-7.7,17.2-17.2,17.2s-17.2-7.7-17.2-17.2
			C-92.9,367-85.2,359.3-75.7,359.3L-75.7,359.3z"/>
	</g>
</g>
</svg>
