<?xml version="1.0" encoding="utf-8"?>
<!-- Generator: Adobe Illustrator 19.1.0, SVG Export Plug-In . SVG Version: 6.00 Build 0)  -->
<svg version="1.1" id="Calque_1" xmlns="http://www.w3.org/2000/svg" xmlns:xlink="http://www.w3.org/1999/xlink" x="0px" y="0px"
	 viewBox="-228 351.2 138.7 138.7" style="enable-background:new -228 351.2 138.7 138.7;" xml:space="preserve">
<style type="text/css">
	.st0{fill:#7DA5AF;}
	.st1{fill:#FFFFFF;}
</style>
<g>
	<path class="st0" d="M-228,420.5c0-38.3,31-69.3,69.3-69.3s69.3,31,69.3,69.3s-31,69.3-69.3,69.3S-228,458.8-228,420.5"/>
</g>
<g>
	<path class="st1" d="M-174.2,442.7h1.4v9.6h4.6v1.2h-6V442.7z"/>
	<path class="st1" d="M-165.1,443.6c0,0.5-0.3,0.9-0.9,0.9c-0.5,0-0.8-0.4-0.8-0.9s0.4-0.9,0.9-0.9
		C-165.5,442.7-165.1,443.1-165.1,443.6z M-166.7,453.5v-7.7h1.4v7.7H-166.7z"/>
	<path class="st1" d="M-163,447.8c0-0.8,0-1.5-0.1-2.1h1.2l0.1,1.3l0,0c0.4-0.7,1.3-1.5,2.6-1.5c1.1,0,2.7,0.6,2.7,3.3v4.6h-1.4
		v-4.5c0-1.2-0.5-2.3-1.8-2.3c-0.9,0-1.6,0.7-1.9,1.4c-0.1,0.2-0.1,0.4-0.1,0.7v4.7h-1.4L-163,447.8L-163,447.8z"/>
	<path class="st1" d="M-152.7,449.3L-152.7,449.3c0.2-0.3,0.5-0.6,0.7-0.9l2.3-2.7h1.7l-3,3.2l3.4,4.6h-1.7l-2.7-3.7l-0.7,0.8v2.9
		h-1.4v-11.4h1.4L-152.7,449.3L-152.7,449.3z"/>
	<path class="st1" d="M-146.8,452c0.4,0.3,1.2,0.6,1.9,0.6c1,0,1.5-0.5,1.5-1.2s-0.4-1-1.4-1.4c-1.4-0.5-2-1.3-2-2.2
		c0-1.2,1-2.3,2.7-2.3c0.8,0,1.5,0.2,1.9,0.5l-0.4,1c-0.3-0.2-0.9-0.4-1.6-0.4c-0.8,0-1.3,0.5-1.3,1.1s0.5,0.9,1.5,1.3
		c1.3,0.5,2,1.2,2,2.3c0,1.4-1.1,2.3-2.9,2.3c-0.8,0-1.6-0.2-2.2-0.5L-146.8,452z"/>
</g>
<g>
	<g>
		<path class="st1" d="M-133.3,400.7l-11.3,11.3c-6.2,6.2-16.3,6.2-22.5,0c-1-1-1.7-2.1-2.4-3.2l5.2-5.2c0.2-0.3,0.6-0.4,0.8-0.6
			c0.4,1.2,1,2.4,2,3.4c3.1,3.1,8.2,3.1,11.3,0l11.3-11.3c3.1-3.1,3.1-8.2,0-11.3s-8.2-3.1-11.3,0l-4,4c-3.2-1.3-6.7-1.6-10.2-1.1
			l8.5-8.5c6.2-6.2,16.3-6.2,22.5,0C-127.1,384.4-127.1,394.5-133.3,400.7 M-163.1,419.3l-4,4c-3.1,3.1-8.2,3.1-11.3,0
			c-3.1-3.1-3.1-8.2,0-11.3l11.3-11.3c3.1-3.1,8.2-3.1,11.3,0c1,1,1.6,2.1,2,3.4c0.3-0.2,0.6-0.3,0.8-0.6l5.2-5.2
			c-0.7-1.1-1.4-2.2-2.4-3.2c-6.2-6.2-16.3-6.2-22.5,0l-11.3,11.3c-6.2,6.2-6.2,16.3,0,22.5s16.3,6.2,22.5,0l8.5-8.5
			C-156.4,420.9-159.9,420.5-163.1,419.3"/>
	</g>
</g>
</svg>
