<?xml version="1.0" encoding="utf-8"?>
<!-- Generator: Adobe Illustrator 19.1.0, SVG Export Plug-In . SVG Version: 6.00 Build 0)  -->
<svg version="1.1" id="Layer_1" xmlns="http://www.w3.org/2000/svg" xmlns:xlink="http://www.w3.org/1999/xlink" x="0px" y="0px"
	 viewBox="0 0 68.3 68.3" style="enable-background:new 0 0 68.3 68.3;" xml:space="preserve">
<style type="text/css">
	.st0{fill:#FFFFFF;stroke:#04BFBF;stroke-miterlimit:10;}
	.st1{fill:#04BFBF;}
</style>
<path class="st0" d="M55.8,67.8H12.5c-6.6,0-12-5.4-12-12V12.5c0-6.6,5.4-12,12-12h43.3c6.6,0,12,5.4,12,12v43.3
	C67.8,62.4,62.4,67.8,55.8,67.8z"/>
<g>
	<path class="st1" d="M57,54.7H12.6V14.1c0-0.7-0.6-1.3-1.3-1.3c-0.7,0-1.3,0.6-1.3,1.3V56c0,0.7,0.6,1.3,1.3,1.3H57
		c0.7,0,1.3-0.6,1.3-1.3C58.3,55.3,57.7,54.7,57,54.7z"/>
	<path class="st1" d="M13.8,51.6h40.6c0.1,0,0.1-0.1,0.1-0.1c0-0.1-0.1-0.1-0.1-0.1H13.8c-0.1,0-0.1,0.1-0.1,0.1
		C13.7,51.6,13.8,51.6,13.8,51.6z"/>
	<path class="st1" d="M13.7,43.8c0,0.1,0.1,0.1,0.1,0.1h4.6l7.1,3.4c0.1,0,0.2,0.1,0.3,0.1c0.2,0,0.4-0.1,0.5-0.3l2-3.2h26.1
		c0.1,0,0.1-0.1,0.1-0.1c0-0.1-0.1-0.1-0.1-0.1H28.6l4.2-6.6l5.6,5c0.2,0.2,0.6,0.2,0.8,0l7-5.9l3.5,2.2c0.3,0.2,0.7,0.1,0.9-0.2
		c0.2-0.3,0.1-0.7-0.2-0.9l-1.8-1.2h5.8c0.1,0,0.1-0.1,0.1-0.1c0-0.1-0.1-0.1-0.1-0.1h-6.2l-1.7-1.1c-0.2-0.1-0.5-0.1-0.8,0.1
		l-1.2,1H33.5l-0.4-0.3c-0.1-0.1-0.3-0.2-0.5-0.2c-0.2,0-0.4,0.1-0.5,0.3L32,36h-2.2l3.7-7.4h6.4l0.5,1.1c0.2,0.3,0.5,0.6,0.9,0.6
		c0.4,0,0.7-0.1,1-0.4l1-1.3h5.4l0.5,0.7c0.3,0.5,1,0.6,1.5,0.3c0.3-0.2,0.5-0.6,0.5-1h3.2c0.1,0,0.1-0.1,0.1-0.1s-0.1-0.1-0.1-0.1
		h-3.3c0-0.1-0.1-0.2-0.2-0.3l-3.9-5.6c-0.2-0.3-0.5-0.5-0.9-0.5c-0.3,0-0.7,0.1-0.9,0.4l-3.7,4.8l-3-6.3h15.9
		c0.1,0,0.1-0.1,0.1-0.1s-0.1-0.1-0.1-0.1h-16l-0.7-1.5c-0.2-0.4-0.6-0.6-1-0.6c-0.4,0-0.8,0.2-1,0.6l-0.7,1.5H13.8
		c-0.1,0-0.1,0.1-0.1,0.1s0.1,0.1,0.1,0.1H35l-3.7,7.4h-4.7l-1.4-2.8c-0.2-0.4-0.6-0.6-1-0.6h0c-0.4,0-0.8,0.2-1,0.6l-1.4,2.8h-7.9
		c-0.1,0-0.1,0.1-0.1,0.1s0.1,0.1,0.1,0.1h7.8L18,36h-4.1c-0.1,0-0.1,0.1-0.1,0.1c0,0.1,0.1,0.1,0.1,0.1h4l-0.7,1.3
		c-0.3,0.5,0,1.2,0.5,1.5c0.2,0.1,0.3,0.1,0.5,0.1c0.4,0,0.8-0.2,1-0.6l1.1-2.3H28c0.2,0.2,0.5,0.4,0.8,0.4h0c0.3,0,0.6-0.2,0.8-0.4
		h2.2l-4.8,7.4h-6.1l-2.5-1.2c-0.3-0.2-0.7,0-0.9,0.3c-0.2,0.3,0,0.7,0.3,0.9l0.1,0h-4.1C13.8,43.7,13.7,43.7,13.7,43.8z M46.2,24.8
		l2.4,3.4h-5L46.2,24.8z M36.8,22l3,6.2h-6.1L36.8,22z M31.1,28.5L28.9,33l-2.2-4.5H31.1z M24.1,28.5h0.1l3.6,7.4h-7.4L24.1,28.5z
		 M44.3,36.2l-5.5,4.6l-5.1-4.6H44.3z M26.9,43.9l-1.3,2l-4.2-2H26.9z"/>
</g>
</svg>
