<?xml version="1.0" encoding="utf-8"?>
<!-- Generator: Adobe Illustrator 19.1.0, SVG Export Plug-In . SVG Version: 6.00 Build 0)  -->
<svg version="1.1" id="Layer_1" xmlns="http://www.w3.org/2000/svg" xmlns:xlink="http://www.w3.org/1999/xlink" x="0px" y="0px"
	 viewBox="-203 364.7 72.3 72.3" style="enable-background:new -203 364.7 72.3 72.3;" xml:space="preserve">
<style type="text/css">
	.st0{opacity:0.48;fill:#FFFFFF;}
	.st1{opacity:0.48;}
	.st2{fill:#04BFBF;}
</style>
<path class="st0" d="M-142.7,437H-191c-6.6,0-12-5.4-12-12v-48.3c0-6.6,5.4-12,12-12h48.3c6.6,0,12,5.4,12,12V425
	C-130.7,431.6-136.1,437-142.7,437z"/>
<g class="st1">
	<g>
		<g>
			<g>
				<polygon class="st2" points="-140.1,427 -193,427 -193,374.1 -190.7,374.1 -190.7,424.8 -140.1,424.8 				"/>
			</g>
			<g>
				<g>
					<path class="st2" d="M-147,420.1h-9.1v-13.4h9.1V420.1z M-153.9,417.9h4.6V409h-4.6V417.9z"/>
				</g>
				<g>
					<path class="st2" d="M-161.3,420.1h-9.1v-19.5h9.1C-161.3,400.6-161.3,420.1-161.3,420.1z M-168.3,417.9h4.6v-15.1h-4.6V417.9z
						"/>
				</g>
				<g>
					<path class="st2" d="M-175.8,420.1h-9.1v-29h9.1V420.1z M-182.6,417.9h4.6v-24.5h-4.6V417.9z"/>
				</g>
			</g>
		</g>
	</g>
</g>
</svg>
