<?xml version="1.0" encoding="utf-8"?>
<!-- Generator: Adobe Illustrator 19.1.0, SVG Export Plug-In . SVG Version: 6.00 Build 0)  -->
<svg version="1.1" id="Layer_1" xmlns="http://www.w3.org/2000/svg" xmlns:xlink="http://www.w3.org/1999/xlink" x="0px" y="0px"
	 viewBox="-197 321.1 199.8 199.8" style="enable-background:new -197 321.1 199.8 199.8;" xml:space="preserve">
<style type="text/css">
	.st0{fill:#CAFCD8;}
	.st1{enable-background:new    ;}
	.st2{fill:#1A69A3;}
	.st3{fill:#FFFFFF;}
</style>
<circle class="st0" cx="-97.1" cy="421" r="99.9"/>
<g>
	<g class="st1">
		<path class="st2" d="M-132.3,480.4h-1c-0.3,0-0.4-0.1-0.4-0.4v-11.4h-0.1l-0.8,1.8l-3.5,7.2c-0.1,0.2-0.3,0.3-0.5,0.3h-0.7
			c-0.3,0-0.4-0.1-0.5-0.3l-3.6-7.4l-0.7-1.6h0v11.4c0,0.3-0.1,0.4-0.4,0.4h-1c-0.3,0-0.4-0.1-0.4-0.4v-15.1c0-0.3,0.1-0.4,0.4-0.4
			h1.1c0.3,0,0.4,0.1,0.5,0.4l4,8.3l1.2,2.5h0l1.2-2.6l4-8.2c0.1-0.3,0.3-0.4,0.6-0.4h1c0.2,0,0.4,0.1,0.4,0.4v15.1
			C-131.9,480.3-132,480.4-132.3,480.4z"/>
		<path class="st2" d="M-124.2,480.5c-4.6,0-4.8-3.4-4.8-6.2c0-2.3,0.5-5.9,4.8-5.9c4.4,0,5,3,5,5.9
			C-119.1,477.1-119.4,480.5-124.2,480.5z M-124.2,470.1c-2.5,0-3,1.5-3,4.4c0,2.9,0.5,4.4,3,4.4c2.6,0,3.1-1.4,3.1-4.4
			C-121,471.5-121.5,470.1-124.2,470.1z"/>
		<path class="st2" d="M-107.6,480.4h-1c-0.3,0-0.4-0.1-0.4-0.4l0-7.1c0-2.2-0.5-2.8-1.9-2.8c-1.2,0-3.3,1-4,1.4v8.5
			c0,0.3-0.1,0.4-0.4,0.4h-1c-0.3,0-0.4-0.1-0.4-0.4v-10.9c0-0.3,0.1-0.4,0.4-0.4h1c0.3,0,0.4,0.1,0.4,0.4v0.9l0.1,0
			c0.8-0.5,2.5-1.5,4.2-1.5c3.1,0,3.5,1.9,3.5,4.4v7.1C-107.2,480.3-107.3,480.4-107.6,480.4z"/>
		<path class="st2" d="M-103.2,466.6c-0.9,0-1-0.5-1-1.1c0-0.6,0.2-1,1-1c0.9,0,1,0.4,1,1C-102.2,466.1-102.3,466.6-103.2,466.6z
			 M-102.7,480.4h-1c-0.3,0-0.4-0.1-0.4-0.4v-10.9c0-0.3,0.1-0.4,0.4-0.4h1c0.3,0,0.4,0.1,0.4,0.4v10.9
			C-102.3,480.3-102.5,480.4-102.7,480.4z"/>
		<path class="st2" d="M-92.7,479.6c0,0.2,0,0.4-0.2,0.5c-0.6,0.3-2,0.5-2.7,0.5c-2.1,0-2.6-1-2.6-2.5v-7.8h-1.3
			c-0.3,0-0.4-0.1-0.4-0.4v-0.7c0-0.3,0.1-0.4,0.4-0.4h1.3v-2.6c0-0.3,0.2-0.4,0.4-0.5l1-0.3c0.3-0.1,0.4,0,0.4,0.4v3h2.7
			c0.3,0,0.4,0.1,0.4,0.4v0.7c0,0.3-0.1,0.4-0.4,0.4h-2.7v7.3c0,1.1,0.3,1.4,1.7,1.4c0.2,0,1.1-0.1,1.4-0.1c0.4,0,0.5,0,0.5,0.3
			L-92.7,479.6z"/>
		<path class="st2" d="M-86.9,480.5c-4.6,0-4.8-3.4-4.8-6.2c0-2.3,0.5-5.9,4.8-5.9c4.4,0,5,3,5,5.9
			C-81.8,477.1-82.1,480.5-86.9,480.5z M-86.9,470.1c-2.5,0-3,1.5-3,4.4c0,2.9,0.5,4.4,3,4.4c2.6,0,3.1-1.4,3.1-4.4
			C-83.7,471.5-84.2,470.1-86.9,470.1z"/>
		<path class="st2" d="M-73.2,470.3c-1.3,0.3-3.2,0.8-3.8,1.2v8.5c0,0.3-0.1,0.4-0.4,0.4h-1c-0.3,0-0.4-0.1-0.4-0.4v-10.9
			c0-0.3,0.1-0.4,0.4-0.4h1c0.3,0,0.4,0.1,0.4,0.4v1l0,0c0.6-0.5,2.4-1.3,3.6-1.6c0.3-0.1,0.4,0,0.4,0.3l0.1,1
			C-72.8,470.1-72.9,470.3-73.2,470.3z"/>
		<path class="st2" d="M-70.2,466.6c-0.9,0-1-0.5-1-1.1c0-0.6,0.2-1,1-1c0.9,0,1,0.4,1,1C-69.1,466.1-69.3,466.6-70.2,466.6z
			 M-69.7,480.4h-1c-0.3,0-0.4-0.1-0.4-0.4v-10.9c0-0.3,0.1-0.4,0.4-0.4h1c0.3,0,0.4,0.1,0.4,0.4v10.9
			C-69.3,480.3-69.4,480.4-69.7,480.4z"/>
		<path class="st2" d="M-57.1,480.4h-1c-0.3,0-0.4-0.1-0.4-0.4l0-7.1c0-2.2-0.5-2.8-1.9-2.8c-1.2,0-3.3,1-4,1.4v8.5
			c0,0.3-0.1,0.4-0.4,0.4h-1c-0.3,0-0.4-0.1-0.4-0.4v-10.9c0-0.3,0.1-0.4,0.4-0.4h1c0.3,0,0.4,0.1,0.4,0.4v0.9l0.1,0
			c0.8-0.5,2.5-1.5,4.2-1.5c3.1,0,3.5,1.9,3.5,4.4v7.1C-56.7,480.3-56.8,480.4-57.1,480.4z"/>
		<path class="st2" d="M-44.9,469c0.6,0.1,0.6,0.6,0.6,1v10.4c0,2.6-0.5,4.4-4.6,4.4c-1.2,0-2.9-0.1-3.9-0.6
			c-0.3-0.1-0.3-0.3-0.3-0.5l0.1-0.5c0-0.3,0.2-0.3,0.6-0.3c1,0.1,2.4,0.2,3.4,0.2c2.2,0,2.8-0.7,2.8-2.4v-1
			c-1.5,0.6-2.5,0.7-3.4,0.7c-3.7,0-4.7-2.4-4.7-6c0-3.9,1.2-6.1,4.9-6.1C-47.8,468.4-46,468.7-44.9,469z M-49.6,478.9
			c0.9,0,2.2-0.2,3.5-0.6v-8c-0.9-0.1-2.1-0.3-3.1-0.3c-1.8,0-3.1,0.5-3.1,4.2C-52.3,477.7-51.6,478.9-49.6,478.9z"/>
	</g>
	<g class="st1">
		<path class="st2" d="M-130.9,501.6h-1c-0.3,0-0.4-0.1-0.4-0.4l0-7.1c0-2.2-0.5-2.8-1.9-2.8c-1.2,0-3.3,1-4,1.4v8.5
			c0,0.3-0.1,0.4-0.4,0.4h-1c-0.3,0-0.4-0.1-0.4-0.4v-10.9c0-0.3,0.1-0.4,0.4-0.4h1c0.3,0,0.4,0.1,0.4,0.4v0.9l0.1,0
			c0.8-0.5,2.5-1.5,4.2-1.5c3.1,0,3.5,1.9,3.5,4.4v7.1C-130.5,501.5-130.6,501.6-130.9,501.6z"/>
		<path class="st2" d="M-119.5,496.3h-6.8c0,2.9,0.9,3.8,3.1,3.8c1,0,2.5-0.2,3.3-0.3c0.3,0,0.5,0,0.6,0.3l0.1,0.5
			c0,0.2,0,0.4-0.3,0.5c-0.9,0.4-2.7,0.6-3.8,0.6c-4.4,0-4.9-3-4.9-6c0-2.3,0.5-6.1,4.9-6.1c4.1,0,4.7,2.7,4.8,5.3
			C-118.4,495.7-118.6,496.3-119.5,496.3z M-123.3,491.3c-2.1,0-2.8,1.4-2.9,3.5h5.9C-120.4,493.1-120.7,491.3-123.3,491.3z"/>
		<path class="st2" d="M-109.7,500.8c0,0.2,0,0.4-0.2,0.5c-0.6,0.3-2,0.5-2.7,0.5c-2.1,0-2.6-1-2.6-2.5v-7.8h-1.3
			c-0.3,0-0.4-0.1-0.4-0.4v-0.7c0-0.3,0.1-0.4,0.4-0.4h1.3v-2.6c0-0.3,0.2-0.4,0.4-0.5l1-0.3c0.3-0.1,0.4,0,0.4,0.4v3h2.7
			c0.3,0,0.4,0.1,0.4,0.4v0.7c0,0.3-0.1,0.4-0.4,0.4h-2.7v7.3c0,1.1,0.3,1.4,1.7,1.4c0.2,0,1.1-0.1,1.4-0.1c0.4,0,0.5,0,0.5,0.3
			L-109.7,500.8z"/>
		<path class="st2" d="M-98.3,499.2C-98.3,499.2-98.3,499.2-98.3,499.2l1.2-3.9l1.6-5.1c0.1-0.2,0.1-0.3,0.4-0.3h1.3
			c0.2,0,0.2,0.1,0.2,0.4l-3.7,11c-0.1,0.2-0.2,0.3-0.4,0.3h-1.1c-0.3,0-0.3-0.1-0.4-0.3c-0.4-1.2-0.8-2.4-1.2-3.7
			c-0.3-0.9-0.6-1.9-1-2.9h0l-0.9,2.9l-1.2,3.7c-0.1,0.2-0.2,0.3-0.4,0.3h-1.1c-0.3,0-0.3-0.1-0.4-0.3l-3.8-11
			c-0.1-0.2,0-0.4,0.2-0.4h1.3c0.3,0,0.3,0.1,0.4,0.3c0.6,1.8,1.2,3.7,1.8,5.5l1.1,3.4h0l1.1-3.3c0.3-1.1,0.7-2.2,1.1-3.3l-0.7-2.3
			c0-0.2,0-0.4,0.2-0.4h1.3c0.3,0,0.3,0.1,0.4,0.3l1.7,5.4C-99.1,496.8-98.7,498-98.3,499.2z"/>
		<path class="st2" d="M-87.3,501.7c-4.6,0-4.8-3.4-4.8-6.2c0-2.3,0.5-5.9,4.8-5.9c4.4,0,5,3,5,5.9
			C-82.3,498.3-82.5,501.7-87.3,501.7z M-87.3,491.3c-2.5,0-3,1.5-3,4.4c0,2.9,0.5,4.4,3,4.4c2.6,0,3.1-1.4,3.1-4.4
			C-84.1,492.7-84.6,491.3-87.3,491.3z"/>
		<path class="st2" d="M-73.6,491.5c-1.3,0.3-3.2,0.8-3.8,1.2v8.5c0,0.3-0.1,0.4-0.4,0.4h-1c-0.3,0-0.4-0.1-0.4-0.4v-10.9
			c0-0.3,0.1-0.4,0.4-0.4h1c0.3,0,0.4,0.1,0.4,0.4v1l0,0c0.6-0.5,2.4-1.3,3.6-1.6c0.3-0.1,0.4,0,0.4,0.3l0.1,1
			C-73.2,491.3-73.3,491.5-73.6,491.5z"/>
		<path class="st2" d="M-65.3,490.2c0.2-0.2,0.2-0.3,0.5-0.3h1.2c0.3,0,0.4,0.2,0.2,0.5l-3.6,4.3l4.1,6.5c0.1,0.2,0,0.4-0.2,0.4
			h-1.2c-0.3,0-0.4-0.1-0.6-0.3l-3.2-5.2l-1.9,2.3v2.8c0,0.3-0.1,0.4-0.4,0.4h-1c-0.3,0-0.4-0.1-0.4-0.4V485c0-0.3,0.1-0.4,0.4-0.4
			h1c0.3,0,0.4,0.1,0.4,0.4v10.8l0,0l1.2-1.6L-65.3,490.2z"/>
		<path class="st2" d="M-57.6,501.7c-1.2,0-2.8-0.1-3.7-0.6c-0.2-0.1-0.3-0.3-0.3-0.5l0.1-0.5c0-0.3,0.2-0.3,0.5-0.3
			c1,0.1,2.6,0.3,3.4,0.3c1.8,0,2.5-0.5,2.5-1.8c0-1.4-0.5-1.7-2.4-2c-2.2-0.3-4.2-0.8-4.2-3.3c0-2.2,1.6-3.4,4.2-3.4
			c0.9,0,2.6,0.1,3.6,0.5c0.2,0.1,0.3,0.3,0.2,0.5l-0.1,0.6c0,0.3-0.3,0.3-0.6,0.3c-1-0.1-2.1-0.2-3.1-0.2c-1.8,0-2.3,0.5-2.3,1.8
			c0,1.2,0.6,1.3,2.5,1.7c2.1,0.3,4.1,0.8,4.1,3.5C-53.1,500.9-55.3,501.7-57.6,501.7z"/>
	</g>
</g>
<path class="st3" d="M-42.3,395.2c-4.9,0-9.3,3.1-10.9,7.4l-8.5-0.8c0-0.1,0-0.2,0-0.2c0-10.4-4.4-19.6-12.2-25.2l7.3-11.8
	c1,0.3,1.8,0.5,2.9,0.5c6.2,0,11-5,11-11.3c0,0,0,0,0-0.1s0,0,0-0.1c0-6.2-4.2-12.1-10.4-12.1l0,0l0,0c-6.2,0-11.3,5.5-11.3,11.7
	c0,3.1,1.3,6.1,3.3,8.2l-7,11.9c-4.1-2-8.6-3-13.4-3c-7.9,0-15.1,3-20.6,7.8l-3.4-3c0.9-1.6,1.4-3.9,1.4-5.9c0-6.2-5-11.7-11.3-11.7
	l0,0l0,0c-6.2,0-12.3,5.9-12.3,12.1c0,0,0,0,0,0.1s0,0,0,0.1c0,6.2,5.6,11.3,11.8,11.3c2.2,0,4.5-0.6,6.3-1.7l3.4,3.1
	c-4.2,5.3-6.6,12-6.6,19.2c0,2.5,0.3,4.9,0.9,7.2l-11.8,4c-2-3.1-6.1-5.2-10.1-5.2c-6.2,0-11.9,5-11.9,11.3l0,0l0,0
	c0,6.2,6.3,9.7,12.5,9.7c0,0,0,0,0.1,0c0,0,0,0,0.1,0c6.2,0,11.3-4.3,11.3-10.5c0-0.3,0-0.1,0-0.4l11.8-3.8
	c4.8,11,15.8,18.7,28.5,18.7c1.4,0,2.8-0.1,4.2-0.2l1.8,8c-3.6,1.9-6.1,5.7-6.1,10c0,6.2,5,11.3,11.3,11.3c0.8,0,1.5-0.1,2.3-0.2
	c5.1-1,9-5.6,9-11c0-6.1-4.9-11.1-11-11.3l-1.8-7.9c10.7-3.5,18.8-12.6,20.9-23.8l8.2,0.8c0.8,5.4,5.5,9.5,11.1,9.5
	c6,0,10.3-4.7,10.6-10.7c0-0.2-0.6-0.4-0.6-0.6c0,0,0,0,0-0.1c0-0.2,0-0.3,0-0.5C-31.7,399.9-36.3,395.2-42.3,395.2z M-78.8,412.5
	h-24.7c-4.4,0-8-2.9-8-7.3s3.6-7.7,8-7.7c0.7-6.2,6-10.8,12.4-10.8s11.6,4.9,12.4,11.1c4.4,0,8,2.9,8,7.4
	C-70.7,409.5-74.3,412.5-78.8,412.5z"/>
</svg>
