<?xml version="1.0" encoding="utf-8"?>
<!-- Generator: Adobe Illustrator 19.1.0, SVG Export Plug-In . SVG Version: 6.00 Build 0)  -->
<svg version="1.1" id="Layer_1" xmlns="http://www.w3.org/2000/svg" xmlns:xlink="http://www.w3.org/1999/xlink" x="0px" y="0px"
	 viewBox="-197 321.1 199.8 199.8" style="enable-background:new -197 321.1 199.8 199.8;" xml:space="preserve">
<style type="text/css">
	.st0{fill:#D3A9A9;}
	.st1{fill:none;}
	.st2{enable-background:new    ;}
	.st3{fill:#FFFFFF;}
</style>
<circle class="st0" cx="-97.1" cy="421" r="99.9"/>
<rect x="-179.9" y="470.5" class="st1" width="171" height="28.3"/>
<g class="st2">
	<path class="st3" d="M-157.5,487c-0.1,0.3-0.2,0.4-0.5,0.4h-1.2c-0.2,0-0.3-0.1-0.2-0.4l5-15.1c0.1-0.3,0.2-0.4,0.5-0.4h1.3
		c0.3,0,0.4,0.1,0.5,0.4l5,15.2c0,0.2,0,0.3-0.2,0.3h-1.5c-0.3,0-0.3-0.1-0.4-0.3l-1.2-3.9h-5.9L-157.5,487z M-152.1,477.4l-1.2-3.9
		h-0.1l-1.1,3.8l-1.2,4.1h4.8L-152.1,477.4z"/>
	<path class="st3" d="M-144,473.6c-0.9,0-1-0.5-1-1.1c0-0.6,0.2-1,1-1c0.9,0,1,0.4,1,1C-143,473.2-143.1,473.6-144,473.6z
		 M-143.5,487.4h-1c-0.3,0-0.4-0.1-0.4-0.4v-10.9c0-0.3,0.1-0.4,0.4-0.4h1c0.3,0,0.4,0.1,0.4,0.4V487
		C-143.1,487.3-143.2,487.4-143.5,487.4z"/>
	<path class="st3" d="M-133.8,477.3c-1.3,0.3-3.2,0.8-3.8,1.2v8.5c0,0.3-0.1,0.4-0.4,0.4h-1c-0.3,0-0.4-0.1-0.4-0.4v-10.9
		c0-0.3,0.1-0.4,0.4-0.4h1c0.3,0,0.4,0.1,0.4,0.4v1l0,0c0.6-0.5,2.4-1.3,3.6-1.6c0.3-0.1,0.4,0,0.4,0.3l0.1,1
		C-133.4,477.1-133.5,477.3-133.8,477.3z"/>
	<path class="st3" d="M-120.5,487.6c-0.9,0-2-0.2-3.3-0.7l0,0v4.2c0,0.3-0.1,0.5-0.4,0.5h-1c-0.3,0-0.4-0.1-0.4-0.5v-15
		c0-0.3,0.1-0.4,0.4-0.4h1c0.3,0,0.4,0.1,0.4,0.4v0.9l0.1,0c0.7-0.5,2.5-1.5,4.1-1.5c3,0,3.9,2.1,3.9,6
		C-115.8,485.4-116.8,487.6-120.5,487.6z M-119.9,477.1c-1.2,0-3.1,0.9-4,1.4v6.9c1.3,0.4,2.4,0.5,3.5,0.5c2,0,2.7-1.1,2.7-4.6
		C-117.7,477.7-118.4,477.1-119.9,477.1z"/>
	<path class="st3" d="M-109.1,487.6c-4.6,0-4.8-3.4-4.8-6.2c0-2.3,0.5-5.9,4.8-5.9c4.4,0,5,3,5,5.9
		C-104.1,484.1-104.4,487.6-109.1,487.6z M-109.1,477.1c-2.5,0-3,1.5-3,4.4c0,2.9,0.5,4.4,3,4.4c2.6,0,3.1-1.4,3.1-4.4
		C-105.9,478.5-106.5,477.1-109.1,477.1z"/>
	<path class="st3" d="M-97.8,486.8c0,0.2,0,0.3-0.2,0.4c-0.4,0.2-0.9,0.3-1.3,0.3c-1.6,0-2-0.8-2-2v-14.6c0-0.3,0.1-0.4,0.4-0.4h1
		c0.3,0,0.4,0.1,0.4,0.4v14c0,0.8,0.3,0.9,1.2,0.9c0.3,0,0.4,0,0.4,0.2L-97.8,486.8z"/>
	<path class="st3" d="M-92.1,486.8c0,0.2,0,0.3-0.2,0.4c-0.4,0.2-0.9,0.3-1.3,0.3c-1.6,0-2-0.8-2-2v-14.6c0-0.3,0.1-0.4,0.4-0.4h1
		c0.3,0,0.4,0.1,0.4,0.4v14c0,0.8,0.3,0.9,1.2,0.9c0.3,0,0.4,0,0.4,0.2L-92.1,486.8z"/>
	<path class="st3" d="M-81,487.4h-1c-0.3,0-0.4-0.1-0.4-0.4v-0.8l0,0c-0.8,0.5-2.5,1.5-4.2,1.5c-3.1,0-3.5-1.9-3.5-4.4v-7.1
		c0-0.3,0.1-0.4,0.4-0.4h1c0.3,0,0.4,0.1,0.4,0.4v7.1c0,2.2,0.5,2.8,2,2.8c1.2,0,3.3-1,4-1.4v-8.5c0-0.3,0.1-0.4,0.4-0.4h1
		c0.3,0,0.4,0.1,0.4,0.4V487C-80.6,487.3-80.7,487.4-81,487.4z"/>
	<path class="st3" d="M-71.5,486.6c0,0.2,0,0.4-0.2,0.5c-0.6,0.3-2,0.5-2.7,0.5c-2.1,0-2.6-1-2.6-2.5v-7.8h-1.3
		c-0.3,0-0.4-0.1-0.4-0.4v-0.7c0-0.3,0.1-0.4,0.4-0.4h1.3v-2.6c0-0.3,0.2-0.4,0.4-0.5l1-0.3c0.3-0.1,0.4,0,0.4,0.4v3h2.7
		c0.3,0,0.4,0.1,0.4,0.4v0.7c0,0.3-0.1,0.4-0.4,0.4h-2.7v7.3c0,1.1,0.3,1.4,1.7,1.4c0.2,0,1.1-0.1,1.4-0.1c0.4,0,0.5,0,0.5,0.3
		L-71.5,486.6z"/>
	<path class="st3" d="M-62.7,486.1c-1.2,0.7-2.6,1.5-4.5,1.5c-2.3,0-3.2-1.2-3.2-3.3c0-2.7,1.3-4,4.5-4h3.3v-0.8
		c0-1.8-0.7-2.3-2.8-2.3c-0.9,0-2.4,0.1-3.4,0.2c-0.3,0-0.4,0-0.5-0.2l-0.1-0.6c0-0.2,0-0.4,0.4-0.5c1-0.3,2.8-0.5,4-0.5
		c3.9,0,4.3,1.7,4.3,4.3v5.3c0,1,0.1,1,0.9,1c0.3,0,0.4,0.1,0.4,0.3v0.6c0,0.2-0.1,0.4-0.5,0.4c-0.3,0-0.6,0.1-0.8,0.1
		C-62.1,487.5-62.5,487.1-62.7,486.1L-62.7,486.1z M-62.7,481.7h-3.5c-1.5,0-2.4,0.5-2.4,2.4c0,1.3,0.5,1.7,1.8,1.7
		c1.2,0,3-0.7,4.1-1.4V481.7z"/>
	<path class="st3" d="M-48.8,487.4h-1c-0.3,0-0.4-0.1-0.4-0.4l0-7.1c0-2.2-0.5-2.8-1.9-2.8c-1.2,0-3.3,1-4,1.4v8.5
		c0,0.3-0.1,0.4-0.4,0.4h-1c-0.3,0-0.4-0.1-0.4-0.4v-10.9c0-0.3,0.1-0.4,0.4-0.4h1c0.3,0,0.4,0.1,0.4,0.4v0.9l0.1,0
		c0.8-0.5,2.5-1.5,4.2-1.5c3.1,0,3.5,1.9,3.5,4.4v7.1C-48.4,487.3-48.5,487.4-48.8,487.4z"/>
	<path class="st3" d="M-39.3,486.6c0,0.2,0,0.4-0.2,0.5c-0.6,0.3-2,0.5-2.7,0.5c-2.1,0-2.6-1-2.6-2.5v-7.8h-1.3
		c-0.3,0-0.4-0.1-0.4-0.4v-0.7c0-0.3,0.1-0.4,0.4-0.4h1.3v-2.6c0-0.3,0.2-0.4,0.4-0.5l1-0.3c0.3-0.1,0.4,0,0.4,0.4v3h2.7
		c0.3,0,0.4,0.1,0.4,0.4v0.7c0,0.3-0.1,0.4-0.4,0.4H-43v7.3c0,1.1,0.3,1.4,1.7,1.4c0.2,0,1.1-0.1,1.4-0.1c0.4,0,0.5,0,0.5,0.3
		L-39.3,486.6z"/>
	<path class="st3" d="M-34.4,487.6c-1.2,0-2.8-0.1-3.7-0.6c-0.2-0.1-0.3-0.3-0.3-0.5l0.1-0.5c0-0.3,0.2-0.3,0.5-0.3
		c1,0.1,2.6,0.3,3.4,0.3c1.8,0,2.5-0.5,2.5-1.8c0-1.4-0.5-1.7-2.4-2c-2.2-0.3-4.2-0.8-4.2-3.3c0-2.2,1.6-3.4,4.2-3.4
		c0.9,0,2.6,0.1,3.6,0.5c0.2,0.1,0.3,0.3,0.2,0.5l-0.1,0.6c0,0.3-0.3,0.3-0.6,0.3c-1-0.1-2.1-0.2-3.1-0.2c-1.8,0-2.3,0.5-2.3,1.8
		c0,1.2,0.6,1.3,2.5,1.7c2.1,0.3,4.1,0.8,4.1,3.5C-29.9,486.7-32.1,487.6-34.4,487.6z"/>
</g>
<g>
	<path class="st3" d="M-57.2,436.6l-23.2-43V368c0-2.4-2-4.3-4.4-4.3h-23.8c-2.4,0-4.4,1.9-4.4,4.3v25.6l-23.3,43
		c-1.8,3.3-1.7,7.3,0.2,10.5c1.9,3.2,5.4,5.2,9.1,5.2h60.4c3.7,0,7.2-2,9.1-5.2C-55.5,443.8-55.4,439.9-57.2,436.6z M-92.9,418.6
		c2.1,0,3.8,1.7,3.8,3.8s-1.7,3.8-3.8,3.8c-2.1,0-3.8-1.7-3.8-3.8C-96.6,420.3-94.9,418.6-92.9,418.6z M-103.5,395.9
		c2.1,0,3.8,1.7,3.8,3.8c0,2.1-1.7,3.8-3.8,3.8s-3.8-1.7-3.8-3.8C-107.2,397.6-105.5,395.9-103.5,395.9z M-103.5,409.1
		c3.4,0,6.1,2.7,6.1,6.1c0,3.4-2.7,6.1-6.1,6.1s-6.1-2.7-6.1-6.1C-109.6,411.8-106.8,409.1-103.5,409.1z M-68.4,440.4
		c-0.8,1.3-2.2,2.1-3.8,2.1h-49.1c-1.5,0-3-0.8-3.8-2.1s-0.8-3-0.1-4.3l5.9-10.6c0.8-1.5,2.5-2.4,4.2-2.2c7.8,0.7,16.7,7.5,24.5,7.2
		c4.2-0.2,8.1-1.7,11.9-3.8c2.1-1.2,4.8-0.4,5.9,1.7l4.3,7.7C-67.6,437.5-67.6,439.1-68.4,440.4z"/>
</g>
</svg>
