<?xml version="1.0" encoding="utf-8"?>
<!-- Generator: Adobe Illustrator 19.1.0, SVG Export Plug-In . SVG Version: 6.00 Build 0)  -->
<svg version="1.1" id="Layer_1" xmlns="http://www.w3.org/2000/svg" xmlns:xlink="http://www.w3.org/1999/xlink" x="0px" y="0px"
	 viewBox="-197 321.1 199.8 199.8" style="enable-background:new -197 321.1 199.8 199.8;" xml:space="preserve">
<style type="text/css">
	.st0{fill:#A9CF54;}
	.st1{fill:#FFFFFF;}
	.st2{fill:none;}
	.st3{enable-background:new    ;}
</style>
<circle class="st0" cx="-97.1" cy="421" r="99.9"/>
<path class="st1" d="M-105,431.8h-27c-11.4,0-20.7-9.3-20.7-20.7c0-7.9,5.2-16.2,12.3-19.6l1.1-0.5v-1.2c0-0.2,0-0.5,0-0.7v-0.3
	v-0.4c0-0.2,0-0.3,0-0.5c0-7.4,6-13.4,13.4-13.4c0.6,0,1.2,0.1,1.7,0.1c0.1,0,0.3,0,0.4,0.1c0.5,0.1,1,0.2,1.5,0.3
	c0.1,0,0.1,0,0.2,0.1c0.5,0.2,1.1,0.4,1.6,0.6c0.1,0.1,0.3,0.1,0.4,0.2c0.5,0.2,0.9,0.5,1.3,0.8c3.7,2.4,6.1,6.5,6.1,11.2
	c0,1.1,0.9,1.9,1.9,1.9s1.9-0.9,1.9-1.9c0-5.3-2.4-10-6.1-13.1c5.6-7.2,14.6-11.7,23.6-11.7c14.8,0,27.1,11.7,28.3,26.5
	c-2-0.1-4.9-0.2-7.8,0.2c-1,0.2-1.8,1.1-1.6,2.2c0.1,0.9,1,1.6,1.9,1.6c0.1,0,0.2,0,0.3,0c4.2-0.6,8.7,0,8.9,0
	c8.9,1.7,15.6,9.9,15.6,19.1c0,10.6-8.6,19.1-19.1,19.1h-24.8C-89.7,431.8-105,431.8-105,431.8z"/>
<rect x="-181.7" y="444.1" class="st2" width="171" height="73.6"/>
<g class="st3">
	<path class="st1" d="M-152.9,461h-1c-0.3,0-0.4-0.1-0.4-0.4v-11.4h-0.1l-0.8,1.8l-3.5,7.2c-0.1,0.2-0.3,0.3-0.5,0.3h-0.7
		c-0.3,0-0.4-0.1-0.5-0.3l-3.6-7.4l-0.7-1.6h0v11.4c0,0.3-0.1,0.4-0.4,0.4h-1c-0.3,0-0.4-0.1-0.4-0.4v-15.1c0-0.3,0.1-0.4,0.4-0.4
		h1.1c0.3,0,0.4,0.1,0.5,0.4l4,8.3l1.2,2.5h0l1.2-2.6l4-8.2c0.1-0.3,0.3-0.4,0.6-0.4h1c0.2,0,0.4,0.1,0.4,0.4v15.1
		C-152.5,460.9-152.7,461-152.9,461z"/>
	<path class="st1" d="M-141,455.7h-6.8c0,2.9,0.9,3.8,3.1,3.8c1,0,2.5-0.2,3.3-0.3c0.3,0,0.5,0,0.6,0.3l0.1,0.5c0,0.2,0,0.4-0.3,0.5
		c-0.9,0.4-2.7,0.6-3.8,0.6c-4.4,0-4.9-3-4.9-6c0-2.3,0.5-6.1,4.9-6.1c4.1,0,4.7,2.7,4.8,5.3C-139.9,455.1-140.1,455.7-141,455.7z
		 M-144.8,450.7c-2.1,0-2.8,1.4-2.9,3.5h5.9C-141.9,452.6-142.3,450.7-144.8,450.7z"/>
	<path class="st1" d="M-131.2,460.3c0,0.2,0,0.4-0.2,0.5c-0.6,0.3-2,0.5-2.7,0.5c-2.1,0-2.6-1-2.6-2.5v-7.8h-1.3
		c-0.3,0-0.4-0.1-0.4-0.4v-0.7c0-0.3,0.1-0.4,0.4-0.4h1.3v-2.6c0-0.3,0.2-0.4,0.4-0.5l1-0.3c0.3-0.1,0.4,0,0.4,0.4v3h2.7
		c0.3,0,0.4,0.1,0.4,0.4v0.7c0,0.3-0.1,0.4-0.4,0.4h-2.7v7.3c0,1.1,0.3,1.4,1.7,1.4c0.2,0,1.1-0.1,1.4-0.1c0.4,0,0.5,0,0.5,0.3
		L-131.2,460.3z"/>
	<path class="st1" d="M-121.5,455.7h-6.8c0,2.9,0.9,3.8,3.1,3.8c1,0,2.5-0.2,3.3-0.3c0.3,0,0.5,0,0.6,0.3l0.1,0.5
		c0,0.2,0,0.4-0.3,0.5c-0.9,0.4-2.7,0.6-3.8,0.6c-4.4,0-4.9-3-4.9-6c0-2.3,0.5-6.1,4.9-6.1c4.1,0,4.7,2.7,4.8,5.3
		C-120.4,455.1-120.6,455.7-121.5,455.7z M-125.3,450.7c-2.1,0-2.8,1.4-2.9,3.5h5.9C-122.4,452.6-122.8,450.7-125.3,450.7z"/>
	<path class="st1" d="M-113.6,461.2c-4.6,0-4.8-3.4-4.8-6.2c0-2.3,0.5-5.9,4.8-5.9c4.4,0,5,3,5,5.9
		C-108.6,457.8-108.9,461.2-113.6,461.2z M-113.6,450.7c-2.5,0-3,1.5-3,4.4c0,2.9,0.5,4.4,3,4.4c2.6,0,3.1-1.4,3.1-4.4
		C-110.4,452.2-110.9,450.7-113.6,450.7z"/>
	<path class="st1" d="M-99.9,451c-1.3,0.3-3.2,0.8-3.8,1.2v8.5c0,0.3-0.1,0.4-0.4,0.4h-1c-0.3,0-0.4-0.1-0.4-0.4v-10.9
		c0-0.3,0.1-0.4,0.4-0.4h1c0.3,0,0.4,0.1,0.4,0.4v1l0,0c0.6-0.5,2.4-1.3,3.6-1.6c0.3-0.1,0.4,0,0.4,0.3l0.1,1
		C-99.5,450.8-99.6,450.9-99.9,451z"/>
	<path class="st1" d="M-93.6,461.2c-4.6,0-4.8-3.4-4.8-6.2c0-2.3,0.5-5.9,4.8-5.9c4.4,0,5,3,5,5.9
		C-88.6,457.8-88.9,461.2-93.6,461.2z M-93.6,450.7c-2.5,0-3,1.5-3,4.4c0,2.9,0.5,4.4,3,4.4c2.6,0,3.1-1.4,3.1-4.4
		C-90.5,452.2-91,450.7-93.6,450.7z"/>
	<path class="st1" d="M-82.3,460.5c0,0.2,0,0.3-0.2,0.4c-0.4,0.2-0.9,0.3-1.3,0.3c-1.6,0-2-0.8-2-2v-14.6c0-0.3,0.1-0.4,0.4-0.4h1
		c0.3,0,0.4,0.1,0.4,0.4v14c0,0.8,0.3,0.9,1.2,0.9c0.3,0,0.4,0,0.4,0.2L-82.3,460.5z"/>
	<path class="st1" d="M-75.9,461.2c-4.6,0-4.8-3.4-4.8-6.2c0-2.3,0.5-5.9,4.8-5.9c4.4,0,5,3,5,5.9
		C-70.9,457.8-71.2,461.2-75.9,461.2z M-75.9,450.7c-2.5,0-3,1.5-3,4.4c0,2.9,0.5,4.4,3,4.4c2.6,0,3.1-1.4,3.1-4.4
		C-72.7,452.2-73.2,450.7-75.9,450.7z"/>
	<path class="st1" d="M-59.3,449.6c0.6,0.1,0.6,0.6,0.6,1v10.4c0,2.6-0.5,4.4-4.6,4.4c-1.2,0-2.9-0.1-3.9-0.6
		c-0.3-0.1-0.3-0.3-0.3-0.5l0.1-0.5c0-0.3,0.2-0.3,0.6-0.3c1,0.1,2.4,0.2,3.4,0.2c2.2,0,2.8-0.7,2.8-2.4v-1
		c-1.5,0.6-2.5,0.7-3.4,0.7c-3.7,0-4.7-2.4-4.7-6c0-3.9,1.2-6.1,4.9-6.1C-62.2,449.1-60.4,449.3-59.3,449.6z M-64,459.6
		c0.9,0,2.2-0.2,3.5-0.6v-8c-0.9-0.1-2.1-0.3-3.1-0.3c-1.8,0-3.1,0.5-3.1,4.2C-66.7,458.4-66,459.6-64,459.6z"/>
	<path class="st1" d="M-54.8,447.3c-0.9,0-1-0.5-1-1.1c0-0.6,0.2-1,1-1c0.9,0,1,0.4,1,1C-53.8,446.8-53.9,447.3-54.8,447.3z
		 M-54.3,461h-1c-0.3,0-0.4-0.1-0.4-0.4v-10.9c0-0.3,0.1-0.4,0.4-0.4h1c0.3,0,0.4,0.1,0.4,0.4v10.9C-53.9,460.9-54,461-54.3,461z"/>
	<path class="st1" d="M-42.6,460.6c-0.9,0.4-2.4,0.6-3.6,0.6c-4.2,0-4.8-2.8-4.8-6.1c0-3,0.6-6,4.8-6c1,0,2.6,0.1,3.6,0.6
		c0.2,0.1,0.3,0.3,0.2,0.5l-0.1,0.6c-0.1,0.3-0.3,0.3-0.6,0.3c-1-0.1-2.3-0.2-3.2-0.2c-2.2,0-2.9,1.1-2.9,4.3c0,3.5,0.7,4.5,2.9,4.5
		c0.8,0,2.3-0.1,3.3-0.2c0.3,0,0.5,0,0.5,0.3l0.1,0.5C-42.3,460.4-42.4,460.5-42.6,460.6z"/>
	<path class="st1" d="M-33.1,459.7c-1.2,0.7-2.6,1.5-4.5,1.5c-2.3,0-3.2-1.2-3.2-3.3c0-2.7,1.3-4,4.5-4h3.3V453
		c0-1.8-0.7-2.3-2.8-2.3c-0.9,0-2.4,0.1-3.4,0.2c-0.3,0-0.4,0-0.5-0.2l-0.1-0.6c0-0.2,0-0.4,0.4-0.5c1-0.3,2.8-0.5,4-0.5
		c3.9,0,4.3,1.7,4.3,4.3v5.3c0,1,0.1,1,0.9,1c0.3,0,0.4,0.1,0.4,0.3v0.6c0,0.2-0.1,0.4-0.5,0.4c-0.3,0-0.6,0.1-0.8,0.1
		C-32.4,461.1-32.9,460.7-33.1,459.7L-33.1,459.7z M-33.1,455.4h-3.5c-1.5,0-2.4,0.5-2.4,2.4c0,1.3,0.5,1.7,1.8,1.7
		c1.2,0,3-0.7,4.1-1.4V455.4z"/>
	<path class="st1" d="M-24.4,460.5c0,0.2,0,0.3-0.2,0.4c-0.4,0.2-0.9,0.3-1.3,0.3c-1.6,0-2-0.8-2-2v-14.6c0-0.3,0.1-0.4,0.4-0.4h1
		c0.3,0,0.4,0.1,0.4,0.4v14c0,0.8,0.3,0.9,1.2,0.9c0.3,0,0.4,0,0.4,0.2L-24.4,460.5z"/>
</g>
<g class="st3">
	<path class="st1" d="M-146.5,491.3c-0.9,0-2-0.2-3.3-0.7l0,0v4.2c0,0.3-0.1,0.5-0.4,0.5h-1c-0.3,0-0.4-0.1-0.4-0.5v-15
		c0-0.3,0.1-0.4,0.4-0.4h1c0.3,0,0.4,0.1,0.4,0.4v0.9l0.1,0c0.7-0.5,2.5-1.5,4.1-1.5c3,0,3.9,2.1,3.9,6
		C-141.8,489.1-142.8,491.3-146.5,491.3z M-145.9,480.9c-1.2,0-3.1,0.9-4,1.4v6.9c1.3,0.4,2.4,0.5,3.5,0.5c2,0,2.7-1.1,2.7-4.6
		C-143.7,481.4-144.4,480.9-145.9,480.9z"/>
	<path class="st1" d="M-132.2,489.8c-1.2,0.7-2.6,1.5-4.5,1.5c-2.3,0-3.2-1.2-3.2-3.3c0-2.7,1.3-4,4.5-4h3.3v-0.8
		c0-1.8-0.7-2.3-2.8-2.3c-0.9,0-2.4,0.1-3.4,0.2c-0.3,0-0.4,0-0.5-0.2l-0.1-0.6c0-0.2,0-0.4,0.4-0.5c1-0.3,2.8-0.5,4-0.5
		c3.9,0,4.3,1.7,4.3,4.3v5.3c0,1,0.1,1,0.9,1c0.3,0,0.4,0.1,0.4,0.3v0.6c0,0.2-0.1,0.4-0.5,0.4c-0.3,0-0.6,0.1-0.8,0.1
		C-131.5,491.2-132,490.8-132.2,489.8L-132.2,489.8z M-132.2,485.5h-3.5c-1.5,0-2.4,0.5-2.4,2.4c0,1.3,0.5,1.7,1.8,1.7
		c1.2,0,3-0.7,4.1-1.4V485.5z"/>
	<path class="st1" d="M-121.1,481.1c-1.3,0.3-3.2,0.8-3.8,1.2v8.5c0,0.3-0.1,0.4-0.4,0.4h-1c-0.3,0-0.4-0.1-0.4-0.4v-10.9
		c0-0.3,0.1-0.4,0.4-0.4h1c0.3,0,0.4,0.1,0.4,0.4v1l0,0c0.6-0.5,2.4-1.3,3.6-1.6c0.3-0.1,0.4,0,0.4,0.3l0.1,1
		C-120.8,480.9-120.9,481-121.1,481.1z"/>
	<path class="st1" d="M-112,489.8c-1.2,0.7-2.6,1.5-4.5,1.5c-2.3,0-3.2-1.2-3.2-3.3c0-2.7,1.3-4,4.5-4h3.3v-0.8
		c0-1.8-0.7-2.3-2.8-2.3c-0.9,0-2.4,0.1-3.4,0.2c-0.3,0-0.4,0-0.5-0.2l-0.1-0.6c0-0.2,0-0.4,0.4-0.5c1-0.3,2.8-0.5,4-0.5
		c3.9,0,4.3,1.7,4.3,4.3v5.3c0,1,0.1,1,0.9,1c0.3,0,0.4,0.1,0.4,0.3v0.6c0,0.2-0.1,0.4-0.5,0.4c-0.3,0-0.6,0.1-0.8,0.1
		C-111.3,491.2-111.8,490.8-112,489.8L-112,489.8z M-112,485.5h-3.5c-1.5,0-2.4,0.5-2.4,2.4c0,1.3,0.5,1.7,1.8,1.7
		c1.2,0,3-0.7,4.1-1.4V485.5z"/>
	<path class="st1" d="M-90.9,491.1h-1c-0.3,0-0.4-0.1-0.4-0.4v-7.2c0-2-0.4-2.6-1.9-2.6c-1.1,0-2.9,0.9-3.8,1.4c0,0.2,0,0.7,0,1.3
		v7.2c0,0.3-0.1,0.4-0.4,0.4h-1.1c-0.3,0-0.4-0.1-0.4-0.4l0-7.4c0-1.6-0.4-2.5-1.8-2.5c-1.1,0-2.7,0.8-3.8,1.4v8.5
		c0,0.3-0.1,0.4-0.4,0.4h-1c-0.3,0-0.4-0.1-0.4-0.4v-10.9c0-0.3,0.1-0.4,0.4-0.4h1c0.3,0,0.4,0.1,0.4,0.4v0.8c0,0,0,0,0,0
		c1-0.6,2.4-1.5,4-1.5c1.8,0,2.7,0.6,3.1,1.7c1.2-0.9,2.7-1.7,4.3-1.7c3,0,3.5,1.8,3.5,4.3v7.2C-90.5,491-90.6,491.1-90.9,491.1z"/>
	<path class="st1" d="M-79.3,485.8h-6.8c0,2.9,0.9,3.8,3.1,3.8c1,0,2.5-0.2,3.3-0.3c0.3,0,0.5,0,0.6,0.3l0.1,0.5
		c0,0.2,0,0.4-0.3,0.5c-0.9,0.4-2.7,0.6-3.8,0.6c-4.4,0-4.9-3-4.9-6c0-2.3,0.5-6.1,4.9-6.1c4.1,0,4.7,2.7,4.8,5.3
		C-78.2,485.2-78.4,485.8-79.3,485.8z M-83.1,480.8c-2.1,0-2.8,1.4-2.9,3.5h5.9C-80.2,482.7-80.6,480.8-83.1,480.8z"/>
	<path class="st1" d="M-69.5,490.4c0,0.2,0,0.4-0.2,0.5c-0.6,0.3-2,0.5-2.7,0.5c-2.1,0-2.6-1-2.6-2.5v-7.8h-1.3
		c-0.3,0-0.4-0.1-0.4-0.4v-0.7c0-0.3,0.1-0.4,0.4-0.4h1.3v-2.6c0-0.3,0.2-0.4,0.4-0.5l1-0.3c0.3-0.1,0.4,0,0.4,0.4v3h2.7
		c0.3,0,0.4,0.1,0.4,0.4v0.7c0,0.3-0.1,0.4-0.4,0.4h-2.7v7.3c0,1.1,0.3,1.4,1.7,1.4c0.2,0,1.1-0.1,1.4-0.1c0.4,0,0.5,0,0.5,0.3
		L-69.5,490.4z"/>
	<path class="st1" d="M-59.8,485.8h-6.8c0,2.9,0.9,3.8,3.1,3.8c1,0,2.5-0.2,3.3-0.3c0.3,0,0.5,0,0.6,0.3l0.1,0.5
		c0,0.2,0,0.4-0.3,0.5c-0.9,0.4-2.7,0.6-3.8,0.6c-4.4,0-4.9-3-4.9-6c0-2.3,0.5-6.1,4.9-6.1c4.1,0,4.7,2.7,4.8,5.3
		C-58.7,485.2-58.9,485.8-59.8,485.8z M-63.6,480.8c-2.1,0-2.8,1.4-2.9,3.5h5.9C-60.7,482.7-61.1,480.8-63.6,480.8z"/>
	<path class="st1" d="M-50.3,481.1c-1.3,0.3-3.2,0.8-3.8,1.2v8.5c0,0.3-0.1,0.4-0.4,0.4h-1c-0.3,0-0.4-0.1-0.4-0.4v-10.9
		c0-0.3,0.1-0.4,0.4-0.4h1c0.3,0,0.4,0.1,0.4,0.4v1l0,0c0.6-0.5,2.4-1.3,3.6-1.6c0.3-0.1,0.4,0,0.4,0.3l0.1,1
		C-49.9,480.9-50,481-50.3,481.1z"/>
	<path class="st1" d="M-45,491.3c-1.2,0-2.8-0.1-3.7-0.6c-0.2-0.1-0.3-0.3-0.3-0.5l0.1-0.5c0-0.3,0.2-0.3,0.5-0.3
		c1,0.1,2.6,0.3,3.4,0.3c1.8,0,2.5-0.5,2.5-1.8c0-1.4-0.5-1.7-2.4-2c-2.2-0.3-4.2-0.8-4.2-3.3c0-2.2,1.6-3.4,4.2-3.4
		c0.9,0,2.6,0.1,3.6,0.5c0.2,0.1,0.3,0.3,0.2,0.5l-0.1,0.6c0,0.3-0.3,0.3-0.6,0.3c-1-0.1-2.1-0.2-3.1-0.2c-1.8,0-2.3,0.5-2.3,1.8
		c0,1.2,0.6,1.3,2.5,1.7c2.1,0.3,4.1,0.8,4.1,3.5C-40.5,490.4-42.7,491.3-45,491.3z"/>
</g>
</svg>
