<?xml version="1.0" encoding="utf-8"?>
<!-- Generator: Adobe Illustrator 19.1.0, SVG Export Plug-In . SVG Version: 6.00 Build 0)  -->
<svg version="1.1" id="Layer_1" xmlns="http://www.w3.org/2000/svg" xmlns:xlink="http://www.w3.org/1999/xlink" x="0px" y="0px"
	 viewBox="0 0 68.3 68.3" style="enable-background:new 0 0 68.3 68.3;" xml:space="preserve">
<style type="text/css">
	.st0{fill:#FFFFFF;stroke:#04BFBF;stroke-miterlimit:10;}
	.st1{fill:#04BFBF;}
</style>
<path class="st0" d="M56.5,68.6H13.1c-6.6,0-12-5.4-12-12V13.3c0-6.6,5.4-12,12-12h43.3c6.6,0,12,5.4,12,12v43.3
	C68.5,63.2,63.1,68.6,56.5,68.6z"/>
<path id="Diagram-tebles" class="st1" d="M61.7,53.3h-5.2V14.8H40.7v10.5h-14V34h-14v19.2H7.4c-0.5,0-0.9,0.4-0.9,0.9
	C6.6,54.7,7,55,7.4,55h19.2h14h1.8h14h5.2c0.5,0,0.9-0.4,0.9-0.9C62.6,53.7,62.2,53.3,61.7,53.3z M14.4,35.8h12.2v17.5H14.4V35.8z
	 M28.4,53.3V34v-7h12.3v26.2H28.4z M42.4,53.3v-28v-8.8h12.2v36.8H42.4z"/>
</svg>
