<?xml version="1.0" encoding="utf-8"?>
<!-- Generator: Adobe Illustrator 19.1.0, SVG Export Plug-In . SVG Version: 6.00 Build 0)  -->
<svg version="1.1" id="Layer_1" xmlns="http://www.w3.org/2000/svg" xmlns:xlink="http://www.w3.org/1999/xlink" x="0px" y="0px"
	 viewBox="0 0 72.3 72.3" style="enable-background:new 0 0 72.3 72.3;" xml:space="preserve">
<style type="text/css">
	.st0{fill:#FFFFFF;}
	.st1{fill:#04BFBF;}
</style>
<path class="st0" d="M60.3,72.3H12c-6.6,0-12-5.4-12-12V12C0,5.4,5.4,0,12,0h48.3c6.6,0,12,5.4,12,12v48.3
	C72.3,66.9,66.9,72.3,60.3,72.3z"/>
<g>
	<g>
		<g>
			<g>
				<polygon class="st1" points="62.9,62.3 10,62.3 10,9.4 12.3,9.4 12.3,60.1 62.9,60.1 				"/>
			</g>
			<g>
				<g>
					<path class="st1" d="M56,55.4h-9.1V42H56V55.4z M49.1,53.2h4.6v-8.9h-4.6V53.2z"/>
				</g>
				<g>
					<path class="st1" d="M41.7,55.4h-9.1V35.9h9.1V55.4z M34.7,53.2h4.6V38.1h-4.6V53.2z"/>
				</g>
				<g>
					<path class="st1" d="M27.2,55.4h-9.1v-29h9.1V55.4z M20.4,53.2H25V28.7h-4.6V53.2z"/>
				</g>
			</g>
		</g>
	</g>
</g>
</svg>
