<?xml version="1.0" encoding="utf-8"?>
<!-- Generator: Adobe Illustrator 19.1.0, SVG Export Plug-In . SVG Version: 6.00 Build 0)  -->
<svg version="1.1" id="Layer_1" xmlns="http://www.w3.org/2000/svg" xmlns:xlink="http://www.w3.org/1999/xlink" x="0px" y="0px"
	 viewBox="0 0 68.3 68.3" style="enable-background:new 0 0 68.3 68.3;" xml:space="preserve">
<style type="text/css">
	.st0{fill:#04BFBF;stroke:#FFFFFF;stroke-miterlimit:10;}
	.st1{fill:#FFFFFF;}
</style>
<path class="st0" d="M55.8,67.8H12.5c-6.6,0-12-5.4-12-12V12.5c0-6.6,5.4-12,12-12h43.3c6.6,0,12,5.4,12,12v43.3
	C67.8,62.4,62.4,67.8,55.8,67.8z"/>
<path id="Diagram-tebles_3_" class="st1" d="M61.1,52.5h-5.2V14H40.1v10.5h-14v8.8h-14v19.2H6.8c-0.5,0-0.9,0.4-0.9,0.9
	c0,0.5,0.4,0.9,0.9,0.9h19.2h14h1.8h14h5.2c0.5,0,0.9-0.4,0.9-0.9C61.9,52.9,61.5,52.5,61.1,52.5z M13.8,35h12.2v17.5H13.8V35z
	 M27.8,52.5V33.3v-7h12.2v26.2H27.8z M41.8,52.5v-28v-8.7h12.2v36.8H41.8z"/>
</svg>
