<?xml version="1.0" encoding="utf-8"?>
<!-- Generator: Adobe Illustrator 19.1.0, SVG Export Plug-In . SVG Version: 6.00 Build 0)  -->
<svg version="1.1" id="Layer_1" xmlns="http://www.w3.org/2000/svg" xmlns:xlink="http://www.w3.org/1999/xlink" x="0px" y="0px"
	 viewBox="-197 321.1 199.8 199.8" style="enable-background:new -197 321.1 199.8 199.8;" xml:space="preserve">
<style type="text/css">
	.st0{fill:#04BFBF;}
	.st1{fill:#FFFFFF;}
	.st2{enable-background:new    ;}
</style>
<circle class="st0" cx="-96.8" cy="422.1" r="99.9"/>
<g>
	<path class="st1" d="M-37.7,439.5l-53-91.8c-3.1-5.3-10.8-5.3-13.8,0l-53,91.8c-3.1,5.3,0.8,12,6.9,12h106
		C-38.5,451.5-34.6,444.9-37.7,439.5z M-97.5,376c3.4,0,6.1,2.8,6,6.2l-1,34.9c-0.1,2.7-2.3,4.9-5.1,4.9c-2.7,0-5-2.2-5.1-4.9
		l-1-34.9C-103.7,378.8-101,376-97.5,376z M-97.6,439.1c-3.5,0-6.3-2.8-6.3-6.3s2.8-6.3,6.3-6.3s6.3,2.8,6.3,6.3
		S-94.1,439.1-97.6,439.1z"/>
</g>
<g>
	<g class="st2">
		<path class="st1" d="M-123.6,486.6c-0.1,0.3-0.2,0.4-0.5,0.4h-1.2c-0.2,0-0.3-0.1-0.2-0.4l5-15.1c0.1-0.3,0.2-0.4,0.5-0.4h1.3
			c0.3,0,0.4,0.1,0.5,0.4l5,15.2c0,0.2,0,0.3-0.2,0.3h-1.5c-0.3,0-0.3-0.1-0.4-0.3l-1.2-3.9h-5.9L-123.6,486.6z M-118.2,477
			l-1.2-3.9h-0.1l-1.1,3.8l-1.2,4.1h4.8L-118.2,477z"/>
		<path class="st1" d="M-107.6,486.4c0,0.2,0,0.3-0.2,0.4c-0.4,0.2-0.9,0.3-1.3,0.3c-1.6,0-2-0.8-2-2v-14.6c0-0.3,0.1-0.4,0.4-0.4h1
			c0.3,0,0.4,0.1,0.4,0.4v14c0,0.8,0.3,0.9,1.2,0.9c0.3,0,0.4,0,0.4,0.2L-107.6,486.4z"/>
		<path class="st1" d="M-97.3,481.7h-6.8c0,2.9,0.9,3.8,3.1,3.8c1,0,2.5-0.2,3.3-0.3c0.3,0,0.5,0,0.6,0.3l0.1,0.5
			c0,0.2,0,0.4-0.3,0.5c-0.9,0.4-2.7,0.6-3.8,0.6c-4.4,0-4.9-3-4.9-6c0-2.3,0.5-6.1,4.9-6.1c4.1,0,4.7,2.7,4.8,5.3
			C-96.2,481.1-96.4,481.7-97.3,481.7z M-101.2,476.7c-2.1,0-2.8,1.4-2.9,3.5h5.9C-98.2,478.5-98.6,476.7-101.2,476.7z"/>
		<path class="st1" d="M-87.8,477c-1.3,0.3-3.2,0.8-3.8,1.2v8.5c0,0.3-0.1,0.4-0.4,0.4h-1c-0.3,0-0.4-0.1-0.4-0.4v-10.9
			c0-0.3,0.1-0.4,0.4-0.4h1c0.3,0,0.4,0.1,0.4,0.4v1l0,0c0.6-0.5,2.4-1.3,3.6-1.6c0.3-0.1,0.4,0,0.4,0.3l0.1,1
			C-87.4,476.8-87.5,476.9-87.8,477z"/>
		<path class="st1" d="M-79.7,486.2c0,0.2,0,0.4-0.2,0.5c-0.6,0.3-2,0.5-2.7,0.5c-2.1,0-2.6-1-2.6-2.5v-7.8h-1.3
			c-0.3,0-0.4-0.1-0.4-0.4v-0.7c0-0.3,0.1-0.4,0.4-0.4h1.3v-2.6c0-0.3,0.2-0.4,0.4-0.5l1-0.3c0.3-0.1,0.4,0,0.4,0.4v3h2.7
			c0.3,0,0.4,0.1,0.4,0.4v0.7c0,0.3-0.1,0.4-0.4,0.4h-2.7v7.3c0,1.1,0.3,1.4,1.7,1.4c0.2,0,1.1-0.1,1.4-0.1c0.4,0,0.5,0,0.5,0.3
			L-79.7,486.2z"/>
		<path class="st1" d="M-74.7,487.2c-1.2,0-2.8-0.1-3.7-0.6c-0.2-0.1-0.3-0.3-0.3-0.5l0.1-0.5c0-0.3,0.2-0.3,0.5-0.3
			c1,0.1,2.6,0.3,3.4,0.3c1.8,0,2.5-0.5,2.5-1.8c0-1.4-0.5-1.7-2.4-2c-2.2-0.3-4.2-0.8-4.2-3.3c0-2.2,1.6-3.4,4.2-3.4
			c0.9,0,2.6,0.1,3.6,0.5c0.2,0.1,0.3,0.3,0.2,0.5l-0.1,0.6c0,0.3-0.3,0.3-0.6,0.3c-1-0.1-2.1-0.2-3.1-0.2c-1.8,0-2.3,0.5-2.3,1.8
			c0,1.2,0.6,1.3,2.5,1.7c2.1,0.3,4.1,0.8,4.1,3.5C-70.3,486.3-72.4,487.2-74.7,487.2z"/>
	</g>
</g>
</svg>
