<?xml version="1.0" encoding="utf-8"?>
<!-- Generator: Adobe Illustrator 19.1.0, SVG Export Plug-In . SVG Version: 6.00 Build 0)  -->
<svg version="1.1" id="Calque_1" xmlns="http://www.w3.org/2000/svg" xmlns:xlink="http://www.w3.org/1999/xlink" x="0px" y="0px"
	 viewBox="-228 351.2 138.7 138.7" style="enable-background:new -228 351.2 138.7 138.7;" xml:space="preserve">
<style type="text/css">
	.st0{fill:#EAC27A;}
	.st1{fill:#F9F9F9;}
	.st2{fill:#FFFFFF;}
</style>
<g>
	<path class="st0" d="M-228,420.5c0-38.3,31-69.3,69.3-69.3s69.3,31,69.3,69.3s-31,69.3-69.3,69.3S-228,458.8-228,420.5"/>
</g>
<g>
	<path class="st1" d="M-184.7,458.2c-0.5,0.3-1.5,0.5-2.9,0.5c-3,0-5.3-1.9-5.3-5.5c0-3.4,2.3-5.7,5.6-5.7c1.3,0,2.2,0.3,2.6,0.5
		l-0.3,1.1c-0.5-0.3-1.3-0.4-2.2-0.4c-2.5,0-4.2,1.6-4.2,4.5c0,2.6,1.5,4.3,4.1,4.3c0.8,0,1.7-0.2,2.3-0.4L-184.7,458.2z"/>
	<path class="st1" d="M-176,454.6c0,2.9-2,4.1-3.9,4.1c-2.1,0-3.7-1.5-3.7-4c0-2.6,1.7-4.1,3.8-4.1
		C-177.5,450.6-176,452.2-176,454.6z M-182.1,454.7c0,1.7,1,3,2.4,3c1.3,0,2.4-1.3,2.4-3c0-1.3-0.7-3-2.3-3
		C-181.4,451.7-182.1,453.2-182.1,454.7z"/>
	<path class="st1" d="M-174.2,452.9c0-0.8,0-1.5-0.1-2.1h1.2l0.1,1.3l0,0c0.4-0.7,1.3-1.5,2.6-1.5c1.1,0,2.7,0.6,2.7,3.3v4.6h-1.4
		V454c0-1.2-0.5-2.3-1.8-2.3c-0.9,0-1.6,0.7-1.9,1.4c-0.1,0.2-0.1,0.4-0.1,0.7v4.7h-1.4L-174.2,452.9L-174.2,452.9z"/>
	<path class="st1" d="M-163.6,448.6v2.2h2v1.1h-2v4.2c0,1,0.3,1.5,1.1,1.5c0.4,0,0.6,0,0.8-0.1l0.1,1.1c-0.3,0.1-0.7,0.2-1.2,0.2
		c-0.7,0-1.2-0.2-1.5-0.6c-0.4-0.4-0.5-1.1-0.5-2v-4.4h-1.2v-1h1.2v-1.9L-163.6,448.6z"/>
	<path class="st1" d="M-155.8,458.5l-0.1-1l0,0c-0.4,0.6-1.3,1.2-2.4,1.2c-1.6,0-2.4-1.1-2.4-2.2c0-1.9,1.7-2.9,4.7-2.9v-0.2
		c0-0.6-0.2-1.8-1.8-1.8c-0.7,0-1.5,0.2-2,0.6l-0.3-0.9c0.6-0.4,1.6-0.7,2.5-0.7c2.4,0,2.9,1.6,2.9,3.2v2.9c0,0.7,0,1.3,0.1,1.9
		L-155.8,458.5L-155.8,458.5z M-156,454.6c-1.5,0-3.3,0.2-3.3,1.7c0,0.9,0.6,1.3,1.3,1.3c1,0,1.6-0.6,1.9-1.3c0-0.1,0.1-0.3,0.1-0.4
		V454.6z"/>
	<path class="st1" d="M-146.8,458.2c-0.4,0.2-1.2,0.4-2.2,0.4c-2.3,0-3.9-1.6-3.9-4s1.6-4.1,4.2-4.1c0.8,0,1.6,0.2,2,0.4l-0.3,1.1
		c-0.3-0.2-0.9-0.4-1.6-0.4c-1.8,0-2.7,1.3-2.7,2.9c0,1.8,1.2,2.9,2.7,2.9c0.8,0,1.3-0.2,1.7-0.4L-146.8,458.2z"/>
	<path class="st1" d="M-143.5,448.6v2.2h2v1.1h-2v4.2c0,1,0.3,1.5,1.1,1.5c0.4,0,0.6,0,0.8-0.1l0.1,1.1c-0.3,0.1-0.7,0.2-1.2,0.2
		c-0.7,0-1.2-0.2-1.5-0.6c-0.4-0.4-0.5-1.1-0.5-2v-4.4h-1.2v-1h1.2v-1.9L-143.5,448.6z"/>
	<path class="st1" d="M-130,456.4c0,0.8,0,1.5,0.1,2.1h-1.2l-0.1-1.3l0,0c-0.4,0.6-1.2,1.4-2.6,1.4c-1.2,0-2.7-0.7-2.7-3.4v-4.4h1.4
		v4.3c0,1.5,0.4,2.5,1.7,2.5c0.9,0,1.6-0.7,1.9-1.3c0.1-0.2,0.1-0.5,0.1-0.7v-4.8h1.4L-130,456.4L-130,456.4z"/>
	<path class="st1" d="M-127.9,457.1c0.4,0.3,1.2,0.6,1.9,0.6c1,0,1.5-0.5,1.5-1.2s-0.4-1-1.4-1.4c-1.4-0.5-2-1.3-2-2.2
		c0-1.2,1-2.3,2.7-2.3c0.8,0,1.5,0.2,1.9,0.5l-0.4,1c-0.3-0.2-0.9-0.4-1.6-0.4c-0.8,0-1.3,0.5-1.3,1.1s0.5,0.9,1.5,1.3
		c1.3,0.5,2,1.2,2,2.3c0,1.4-1.1,2.3-2.9,2.3c-0.8,0-1.6-0.2-2.2-0.5L-127.9,457.1z"/>
</g>
<g>
	<g>
		<path class="st2" d="M-170.2,438.8c0,0.4,0.2,0.8,0.6,1s0.8,0.2,1.2-0.1l7.7-5.3l-9.5-4.5L-170.2,438.8L-170.2,438.8z"/>
	</g>
	<g>
		<path class="st2" d="M-124.4,379.4c-0.2-0.2-0.5-0.3-0.8-0.3c-0.2,0-0.3,0-0.5,0.1l-66.6,32.7c-0.7,0.3-1.1,1-1.1,1.8
			s0.4,1.5,1.1,1.8l17.6,8.4l35.1-28.9l-30.8,30.9l21.9,10.4c0.3,0.1,0.6,0.2,0.9,0.2c0.2,0,0.5,0,0.7-0.1c0.5-0.2,0.9-0.6,1.1-1.1
			l21.7-54.6C-123.9,380.2-124,379.7-124.4,379.4"/>
	</g>
</g>
</svg>
