<?xml version="1.0" encoding="utf-8"?>
<!-- Generator: Adobe Illustrator 19.1.0, SVG Export Plug-In . SVG Version: 6.00 Build 0)  -->
<svg version="1.1" id="Layer_1" xmlns="http://www.w3.org/2000/svg" xmlns:xlink="http://www.w3.org/1999/xlink" x="0px" y="0px"
	 viewBox="0 0 36.2 54.8" style="enable-background:new 0 0 36.2 54.8;" xml:space="preserve">
<g>
	<path d="M18.1,0C8.1,0,0,8.1,0,18.1c0,4,2.6,10.6,7.9,20.1c3.7,6.7,7.4,12.3,7.6,12.5l2.7,4.1l2.7-4.1c0.2-0.2,3.8-5.8,7.6-12.5
		c5.3-9.5,7.9-16,7.9-20.1C36.2,8.1,28.1,0,18.1,0z M18.1,27.4c-5.2,0-9.4-4.2-9.4-9.4s4.2-9.4,9.4-9.4s9.4,4.2,9.4,9.4
		S23.3,27.4,18.1,27.4z"/>
</g>
</svg>
