<?xml version="1.0" encoding="utf-8"?>
<!-- Generator: Adobe Illustrator 19.1.0, SVG Export Plug-In . SVG Version: 6.00 Build 0)  -->
<svg version="1.1" id="Layer_1" xmlns="http://www.w3.org/2000/svg" xmlns:xlink="http://www.w3.org/1999/xlink" x="0px" y="0px"
	 viewBox="0 0 49.1 53.4" style="enable-background:new 0 0 49.1 53.4;" xml:space="preserve">
<style type="text/css">
	.st0{fill:#04BFBF;}
</style>
<g>
	<path class="st0" d="M49.2,44.9L35.2,19V3.5c0-1.5-1.2-2.6-2.7-2.6H18.2c-1.5,0-2.6,1.2-2.6,2.6V19l-14,25.9c-1.1,2-1,4.4,0.1,6.3
		c1.1,1.9,3.2,3.1,5.5,3.1h36.4c2.2,0,4.3-1.2,5.5-3.1C50.2,49.2,50.3,46.8,49.2,44.9z M27.7,34c1.3,0,2.3,1,2.3,2.3
		c0,1.3-1,2.3-2.3,2.3c-1.3,0-2.3-1-2.3-2.3C25.4,35,26.5,34,27.7,34z M21.3,20.4c1.3,0,2.3,1,2.3,2.3c0,1.3-1,2.3-2.3,2.3
		c-1.3,0-2.3-1-2.3-2.3C19.1,21.4,20.1,20.4,21.3,20.4z M21.3,28.3c2,0,3.7,1.6,3.7,3.7c0,2-1.6,3.7-3.7,3.7c-2,0-3.7-1.6-3.7-3.7
		S19.3,28.3,21.3,28.3z M42.5,47.2c-0.5,0.8-1.3,1.3-2.3,1.3H10.6c-0.9,0-1.8-0.5-2.3-1.3c-0.5-0.8-0.5-1.8,0-2.6l3.6-6.4
		c0.5-0.9,1.5-1.4,2.5-1.3c4.7,0.5,10,4.5,14.8,4.3c2.5-0.1,4.9-1,7.1-2.3c1.3-0.7,2.9-0.2,3.6,1l2.6,4.7
		C42.9,45.4,42.9,46.4,42.5,47.2z"/>
</g>
</svg>
