<?xml version="1.0" encoding="utf-8"?>
<!-- Generator: Adobe Illustrator 19.1.0, SVG Export Plug-In . SVG Version: 6.00 Build 0)  -->
<svg version="1.1" id="Layer_1" xmlns="http://www.w3.org/2000/svg" xmlns:xlink="http://www.w3.org/1999/xlink" x="0px" y="0px"
	 viewBox="-41 164.9 512 512" style="enable-background:new -41 164.9 512 512;" xml:space="preserve">
<style type="text/css">
	.st0{fill:#04BFBF;}
</style>
<g>
	<g>
		<path class="st0" d="M310.5,298.6c-39.9-67.8-80.4-125.6-80.8-126.1c-3.4-4.8-8.8-7.6-14.6-7.6c-5.8,0-11.3,2.8-14.6,7.6
			c-0.4,0.6-40.9,58.3-80.8,126.1C64.8,391.6,37,459,37,498.9c0,98.1,79.8,178,178,178s178-79.8,178-178
			C393,459,365.2,391.6,310.5,298.6z M153.9,576.7c-3.4,3-7.6,4.5-11.8,4.5c-5,0-9.9-2-13.4-6.1C110,554.1,99.7,527,99.7,498.9
			c0-6.7,2.3-27.2,23.6-74c4.1-9,14.7-13,23.7-8.9c9,4.1,13,14.7,8.9,23.7c-19.7,43.3-20.4,59.1-20.4,59.2
			c0,19.3,7.1,37.9,19.9,52.4C162,558.9,161.3,570.2,153.9,576.7z"/>
	</g>
</g>
</svg>
