<?xml version="1.0" encoding="utf-8"?>
<!-- Generator: Adobe Illustrator 19.1.0, SVG Export Plug-In . SVG Version: 6.00 Build 0)  -->
<svg version="1.1" id="Layer_1" xmlns="http://www.w3.org/2000/svg" xmlns:xlink="http://www.w3.org/1999/xlink" x="0px" y="0px"
	 viewBox="-90 213.9 415 415" style="enable-background:new -90 213.9 415 415;" xml:space="preserve">
<style type="text/css">
	.st0{fill:#04BFBF;}
</style>
<g>
	<g>
		<g>
			<path class="st0" d="M117.5,253.9c-53.8,0-97.5,43.7-97.5,97.5s43.7,97.5,97.5,97.5s97.5-43.7,97.5-97.5S171.3,253.9,117.5,253.9
				z M199.6,358.9c-3.8,42-39.2,75-82.1,75s-78.3-33-82.1-75h27.1v-15H35.4c1.4-15.9,7.4-30.5,16.6-42.5l15.3,15.3l10.6-10.6
				l-15.7-15.7c12.9-11.7,29.6-19.4,47.9-21.1v27.1h15v-27.1c18.4,1.7,35,9.4,47.9,21.1l-20.7,20.7l10.6,10.6l20.3-20.3
				c9.2,12,15.1,26.6,16.6,42.5h-27.1v15H199.6z"/>
			<path class="st0" d="M125,349.9v-33.5h-15v33.5c-11.5,3.3-20,13.9-20,26.5c0,15.2,12.3,27.5,27.5,27.5s27.5-12.3,27.5-27.5
				C145,363.8,136.5,353.2,125,349.9z M117.5,388.9c-6.9,0-12.5-5.6-12.5-12.5s5.6-12.5,12.5-12.5s12.5,5.6,12.5,12.5
				S124.4,388.9,117.5,388.9z"/>
			<path class="st0" d="M57.5,463.9c-26.2,0-47.5,21.3-47.5,47.5c0,26.2,21.3,47.5,47.5,47.5s47.5-21.3,47.5-47.5
				C105,485.2,83.7,463.9,57.5,463.9z M57.5,543.9c-15.3,0-28.2-10.7-31.6-25h36.6v-15H25.9c3.4-14.3,16.3-25,31.6-25
				c17.9,0,32.5,14.6,32.5,32.5C90,529.3,75.4,543.9,57.5,543.9z"/>
			<path class="st0" d="M177.5,463.9c-26.2,0-47.5,21.3-47.5,47.5c0,26.2,21.3,47.5,47.5,47.5s47.5-21.3,47.5-47.5
				C225,485.2,203.7,463.9,177.5,463.9z M209.1,518.9c-3.4,14.3-16.3,25-31.6,25c-17.9,0-32.5-14.6-32.5-32.5
				c0-17.9,14.6-32.5,32.5-32.5c15.3,0,28.2,10.7,31.6,25h-41.6v15H209.1z"/>
			<path class="st0" d="M260,393.9v-52.5c0-70.3-57.2-127.5-127.5-127.5h-30C32.2,213.9-25,271.1-25,341.4v2.5h-30v65h30v25h-30v65
				h30v2.5c0,70.3,57.2,127.5,127.5,127.5h30c70.3,0,127.5-57.2,127.5-127.5v-42.5h30v-65H260z M-25,483.9h-15v-35h15V483.9z
				 M-25,393.9h-15v-35h15V393.9z M245,501.4c0,62-50.5,112.5-112.5,112.5H125v-42.5h-15v42.5h-7.5c-62,0-112.5-50.5-112.5-112.5
				v-160c0-62,50.5-112.5,112.5-112.5h30c62,0,112.5,50.5,112.5,112.5V501.4z M275,443.9h-15v-35h15V443.9z"/>
		</g>
	</g>
</g>
</svg>
