<?xml version="1.0" encoding="iso-8859-1"?>
<!-- Generator: Adobe Illustrator 19.0.0, SVG Export Plug-In . SVG Version: 6.00 Build 0)  -->
<svg version="1.1" id="Layer_1" xmlns="http://www.w3.org/2000/svg" xmlns:xlink="http://www.w3.org/1999/xlink" x="0px" y="0px"
	 viewBox="0 0 415 415" style="enable-background:new 0 0 415 415;" xml:space="preserve">
<g>
	<g>
		<g>
			<path d="M207.5,40c-53.762,0-97.5,43.738-97.5,97.5c0,53.762,43.738,97.5,97.5,97.5c53.762,0,97.5-43.738,97.5-97.5
				C305,83.738,261.262,40,207.5,40z M289.644,144.999C285.84,186.987,250.461,220,207.5,220s-78.34-33.013-82.144-75H152.5v-15
				h-27.144c1.438-15.877,7.388-30.465,16.562-42.474l15.278,15.278l10.607-10.607l-15.742-15.742
				C164.981,64.711,181.634,57.02,200,55.356V82.5h15V55.356c18.366,1.664,35.019,9.355,47.938,21.098l-20.742,20.742l10.607,10.607
				l20.278-20.278c9.174,12.01,15.124,26.598,16.562,42.474H262.5v15H289.644z"/>
			<path d="M215,136.048V102.5h-15v33.548c-11.528,3.274-20,13.889-20,26.452c0,15.163,12.337,27.5,27.5,27.5
				c15.163,0,27.5-12.337,27.5-27.5C235,149.937,226.528,139.322,215,136.048z M207.5,175c-6.893,0-12.5-5.607-12.5-12.5
				s5.607-12.5,12.5-12.5s12.5,5.607,12.5,12.5S214.393,175,207.5,175z"/>
			<path d="M147.5,250c-26.191,0-47.5,21.309-47.5,47.5c0,26.191,21.309,47.5,47.5,47.5c26.191,0,47.5-21.309,47.5-47.5
				C195,271.309,173.691,250,147.5,250z M147.5,330c-15.339,0-28.221-10.685-31.617-25H152.5v-15h-36.617
				c3.396-14.315,16.278-25,31.617-25c17.921,0,32.5,14.579,32.5,32.5C180,315.421,165.421,330,147.5,330z"/>
			<path d="M267.5,250c-26.191,0-47.5,21.309-47.5,47.5c0,26.191,21.309,47.5,47.5,47.5s47.5-21.309,47.5-47.5
				C315,271.309,293.691,250,267.5,250z M299.117,305c-3.396,14.315-16.278,25-31.617,25c-17.921,0-32.5-14.579-32.5-32.5
				c0-17.921,14.579-32.5,32.5-32.5c15.339,0,28.221,10.685,31.617,25H257.5v15H299.117z"/>
			<path d="M350,180v-52.5C350,57.196,292.804,0,222.5,0h-30C122.196,0,65,57.196,65,127.5v2.5H35v65h30v25H35v65h30v2.5
				C65,357.804,122.196,415,192.5,415h30c70.304,0,127.5-57.196,127.5-127.5V245h30v-65H350z M65,270H50v-35h15V270z M65,180H50v-35
				h15V180z M335,287.5c0,62.033-50.467,112.5-112.5,112.5H215v-42.5h-15V400h-7.5C130.467,400,80,349.533,80,287.5v-160
				C80,65.467,130.467,15,192.5,15h30C284.533,15,335,65.467,335,127.5V287.5z M365,230h-15v-35h15V230z"/>
		</g>
	</g>
</g>
<g>
</g>
<g>
</g>
<g>
</g>
<g>
</g>
<g>
</g>
<g>
</g>
<g>
</g>
<g>
</g>
<g>
</g>
<g>
</g>
<g>
</g>
<g>
</g>
<g>
</g>
<g>
</g>
<g>
</g>
</svg>
