<?xml version="1.0" encoding="utf-8"?>
<!-- Generator: Adobe Illustrator 19.1.0, SVG Export Plug-In . SVG Version: 6.00 Build 0)  -->
<svg version="1.1" id="Layer_1" xmlns="http://www.w3.org/2000/svg" xmlns:xlink="http://www.w3.org/1999/xlink" x="0px" y="0px"
	 viewBox="-55 178.9 485 485" style="enable-background:new -55 178.9 485 485;" xml:space="preserve">
<style type="text/css">
	.st0{fill:#04BFBF;}
</style>
<g>
	<g>
		<g>
			<path class="st0" d="M187.5,218.9C108.9,218.9,45,282.8,45,361.4s63.9,142.5,142.5,142.5S330,440,330,361.4
				S266.1,218.9,187.5,218.9z M209.7,403.7l-7.7,25.1H173l-7.7-25.1l22.2-83.2L209.7,403.7z M187.5,488.9
				c-67.8,0-123.4-53.2-127.3-120h32.3v-15H60.2c1.6-27,11.6-51.8,27.4-71.7l19.5,19.5l10.6-10.6L97.7,271
				c21.4-21.3,50.3-35,82.3-36.9v32.3h6.4L149.7,404l12.3,39.9H213l12.3-39.9l-36.7-137.6h6.4v-32.3c32,1.9,60.9,15.6,82.3,36.9
				l-20.1,20.1l10.6,10.6l19.5-19.5c15.9,19.9,25.9,44.7,27.4,71.7h-32.3v15h32.3C310.9,435.7,255.3,488.9,187.5,488.9z"/>
			<path class="st0" d="M370,361.4c0-100.6-81.9-182.5-182.5-182.5S5,260.8,5,361.4c0,90.5,66.2,166.9,155,180.4v72.1h-37.5
				c-9.6,0-17.5,7.9-17.5,17.5v17.5H62.5v15h250v-15H270v-17.5c0-9.6-7.9-17.5-17.5-17.5H215v-72.1C303.8,528.3,370,451.9,370,361.4
				z M252.5,628.9c1.4,0,2.5,1.1,2.5,2.5v17.5H120v-17.5c0-1.4,1.1-2.5,2.5-2.5H252.5z M206.6,527.7l-6.6,0.8v85.4h-25v-85.4
				l-6.6-0.8C83.8,518,20,446.5,20,361.4c0-92.4,75.1-167.5,167.5-167.5S355,269,355,361.4C355,446.5,291.2,518,206.6,527.7z"/>
		</g>
	</g>
</g>
</svg>
