<?xml version="1.0" encoding="utf-8"?>
<!-- Generator: Adobe Illustrator 19.1.0, SVG Export Plug-In . SVG Version: 6.00 Build 0)  -->
<svg version="1.1" id="Layer_1" xmlns="http://www.w3.org/2000/svg" xmlns:xlink="http://www.w3.org/1999/xlink" x="0px" y="0px"
	 viewBox="0 0 49.1 53.4" style="enable-background:new 0 0 49.1 53.4;" xml:space="preserve">
<g>
	<path d="M48.4,43.9L34.4,18V2.6c0-1.5-1.2-2.6-2.7-2.6H17.4c-1.5,0-2.6,1.2-2.6,2.6V18l-14,25.9c-1.1,2-1,4.4,0.1,6.3
		c1.1,1.9,3.2,3.1,5.5,3.1h36.4c2.2,0,4.3-1.2,5.5-3.1C49.4,48.3,49.5,45.9,48.4,43.9z M26.9,33.1c1.3,0,2.3,1,2.3,2.3
		c0,1.3-1,2.3-2.3,2.3c-1.3,0-2.3-1-2.3-2.3C24.6,34.1,25.6,33.1,26.9,33.1z M20.5,19.5c1.3,0,2.3,1,2.3,2.3c0,1.3-1,2.3-2.3,2.3
		c-1.3,0-2.3-1-2.3-2.3C18.2,20.5,19.2,19.5,20.5,19.5z M20.5,27.4c2,0,3.7,1.6,3.7,3.7c0,2-1.6,3.7-3.7,3.7c-2,0-3.7-1.6-3.7-3.7
		S18.5,27.4,20.5,27.4z M41.6,46.3c-0.5,0.8-1.3,1.3-2.3,1.3H9.8c-0.9,0-1.8-0.5-2.3-1.3c-0.5-0.8-0.5-1.8,0-2.6l3.6-6.4
		c0.5-0.9,1.5-1.4,2.5-1.3c4.7,0.5,10,4.5,14.8,4.3c2.5-0.1,4.9-1,7.1-2.3c1.3-0.7,2.9-0.2,3.6,1l2.6,4.7
		C42.1,44.5,42.1,45.5,41.6,46.3z"/>
</g>
</svg>
