<?xml version="1.0" encoding="iso-8859-1"?>
<!-- Generator: Adobe Illustrator 19.0.0, SVG Export Plug-In . SVG Version: 6.00 Build 0)  -->
<svg version="1.1" id="Layer_1" xmlns="http://www.w3.org/2000/svg" xmlns:xlink="http://www.w3.org/1999/xlink" x="0px" y="0px"
	 viewBox="0 0 512 512" style="enable-background:new 0 0 512 512;" xml:space="preserve">
<g>
	<g>
		<path d="M351.461,133.735c-39.922-67.82-80.41-125.552-80.814-126.126C267.294,2.839,261.83,0,256.001,0
			c-5.83,0-11.294,2.839-14.646,7.609c-0.404,0.574-40.894,58.306-80.816,126.126c-54.748,93.009-82.508,160.399-82.508,200.297
			C78.031,432.163,157.868,512,256.001,512s177.968-79.837,177.968-177.968C433.967,294.134,406.208,226.744,351.461,133.735z
			 M194.86,411.833c-3.404,3.006-7.633,4.483-11.843,4.483c-4.956,0-9.887-2.045-13.427-6.053
			c-18.613-21.079-28.864-48.151-28.864-76.233c0-6.657,2.303-27.19,23.633-73.967c4.101-8.996,14.721-12.963,23.717-8.862
			c8.996,4.101,12.965,14.721,8.862,23.717c-19.747,43.307-20.402,59.051-20.406,59.206c0,19.253,7.066,37.909,19.897,52.439
			C202.974,393.975,202.27,405.289,194.86,411.833z"/>
	</g>
</g>
<g>
</g>
<g>
</g>
<g>
</g>
<g>
</g>
<g>
</g>
<g>
</g>
<g>
</g>
<g>
</g>
<g>
</g>
<g>
</g>
<g>
</g>
<g>
</g>
<g>
</g>
<g>
</g>
<g>
</g>
</svg>
