<?xml version="1.0" encoding="utf-8"?>
<!-- Generator: Adobe Illustrator 19.1.0, SVG Export Plug-In . SVG Version: 6.00 Build 0)  -->
<svg version="1.1" id="Capa_1" xmlns="http://www.w3.org/2000/svg" xmlns:xlink="http://www.w3.org/1999/xlink" x="0px" y="0px"
	 viewBox="-274 398.2 45.7 45.7" style="enable-background:new -274 398.2 45.7 45.7;" xml:space="preserve">
<style type="text/css">
	.st0{fill:#04BFBF;}
</style>
<g>
	<g>
		<path class="st0" d="M-243.4,425.5V406c0-4.3-3.5-7.8-7.8-7.8c-4.3,0-7.8,3.5-7.8,7.8v19.5c-1.9,1.9-3.1,4.6-3.1,7.5
			c0,6,4.9,10.8,10.8,10.8c6,0,10.8-4.9,10.8-10.8C-240.3,430.1-241.5,427.5-243.4,425.5z M-251.2,440.9c-4.3,0-7.8-3.5-7.8-7.8
			c0-2.5,1.2-4.8,3.1-6.2v-12.4h3.4c0.6,0,1-0.5,1-1c0-0.6-0.4-1-1-1h-3.4V410h3.4c0.6,0,1-0.4,1-1s-0.4-1-1-1h-3.4v-2
			c0-2.6,2.1-4.8,4.8-4.8c2.6,0,4.8,2.1,4.8,4.8v20.9c1.9,1.4,3,3.7,3,6.2C-243.4,437.4-246.9,440.9-251.2,440.9z"/>
		<path class="st0" d="M-248.7,428.7v-11.8h-5v11.8c-1.5,0.9-2.5,2.5-2.5,4.4c0,2.8,2.3,5,5,5c2.8,0,5-2.3,5-5
			C-246.1,431.2-247.1,429.6-248.7,428.7z"/>
	</g>
</g>
</svg>
